<?xml version="1.0" encoding="utf-8"?>
<!-- Generator: Adobe Illustrator 22.0.1, SVG Export Plug-In . SVG Version: 6.00 Build 0)  -->
<svg version="1.1" id="Lag_1" xmlns="http://www.w3.org/2000/svg" xmlns:xlink="http://www.w3.org/1999/xlink" x="0px" y="0px"
	 viewBox="0 0 200 200" style="enable-background:new 0 0 200 200;" xml:space="preserve">
<style type="text/css">
	.st0{fill:#FFB370;}
	.st1{fill:#FFFFFF;}
	.st2{fill:#1857CE;}
	.st3{fill:#300505;}
	.st4{fill:#B13740;}
	.st5{fill:#FEFEFE;}
	.st6{fill:#A8A5A1;}
	.st7{fill:#882A2F;}
	.st8{fill:#E3ACA4;}
	.st9{fill:#45507C;}
	.st10{fill:#7B9AF2;}
	.st11{fill:#2F66EA;}
	.st12{fill:#010000;}
</style>
<path class="st0" d="M168.8,146.9c6-11.6,9.4-24.8,9.4-38.8c0-46.9-38-84.8-84.8-84.8c-46.9,0-84.8,38-84.8,84.8
	c0,14,3.4,27.2,9.4,38.8H168.8z"/>
<polygon class="st1" points="111.3,84.4 74.8,84.4 72.8,69.8 113.8,70.4 "/>
<polygon class="st2" points="107,101.2 79,101.5 77,87 109.4,87.3 "/>
<g id="layer101">
	<path class="st3" d="M77.8,110.3c0.6-0.2,1.8-0.2,2.5,0c0.6,0.3,0.1,0.5-1.3,0.5S77.1,110.6,77.8,110.3z"/>
	<path class="st3" d="M105.8,110.3c0.6-0.2,1.8-0.2,2.5,0c0.6,0.3,0.1,0.5-1.3,0.5S105.1,110.6,105.8,110.3z"/>
</g>
<g id="layer103">
	<path class="st4" d="M16.2,149.3c20.1-0.2,133.4-0.2,154,0c20.5,0.1-36,1.2-76.7,1.2S-4,149.4,16.2,149.3z"/>
	<path class="st4" d="M82.6,114.5L82,112H51c-21.5,0-41-0.3-41-1.1c0-0.7,19.3-1,41-0.7c28.1,0.3,31,0.1,31-1.3c0-3.5,2.5-4,6.4-1.4
		c4.5,3.1,4.8,3.1,9.3,0c3.9-2.6,6.3-2,6.3,1.4c0,1.4,2.9,1.6,30.6,1.3c21-0.3,41,0,41.7,0.7c0.8,0.8-17.9,1.1-40.6,1.1
		c-31.2,0-31.7,0-31.7,2c0,3.2-2.7,3.5-6.9,0.6l-3.9-2.7l-3.7,2.5C84.8,117.6,83.4,117.7,82.6,114.5z"/>
	<path class="st4" d="M85,60.9c-4.1-0.4-10.1-0.5-13.2-0.2c-5,0.5-5.8,0.3-5.8-1.1c0-2.7,4.4-3.7,11.8-2.6c8.8,1.3,24.1,1.2,32,0
		c4.8-0.8,6.9-0.8,8.9,0.2c5.6,2.8,3.7,3.6-8.6,3.6c-6.5,0-13.2,0.2-14.8,0.5C93.8,61.5,89.1,61.4,85,60.9z"/>
	<path class="st4" d="M79.3,55.3c-3.9-0.5-4.2-3-3.3-10.5c1.2-9.6,5-13.3,17.4-13.3c8.8,0,12.8,1.5,16,5.6c1.3,1.9,2.7,4.2,2.5,10.2
		c-0.3,7-0.3,7.1-3.3,7.7C105.2,55.8,84.5,55.9,79.3,55.3z"/>
</g>
<g>
	<path class="st5" d="M166.2,152.2c0-17.1-0.4-27.2-0.4-44.3c31,0-22.9,1,8.1,1c0,17.1,0,24.7,0,41.8
		C142.9,150.7,197.2,152.2,166.2,152.2z M166.9,114c0.3-0.1,0.4-0.2,0.5-0.4c0.8-0.6,1.9-1.1,2.9-1.6c0.3-0.1,0.5-0.1,0.7-0.3
		c0.2,0,0.3-0.1,0.4-0.2c0.3,0,0.4-0.2,0.7-0.2c0.6,0.1,1.4-0.1,1.7,0.4c0.3,0.3,0.1,0.7,0.3,1.2c0.1-0.2,0.1-0.3,0.2-0.3
		c0.7-0.1,0.8-0.5,1-0.8c0-0.1,0.2-0.1,0.3-0.2c0.9-0.6,1-1.6,0.1-2.2c-0.4-0.2-0.6-0.5-0.8-0.8c-1.7-2.1-6.1-2.2-8.2-1
		c-1.2,0.7-2.1,1.5-2.7,2.4c-0.3,0.4-1,0.5-1.7,0.6c-0.4,0.1-0.8,0-1-0.2c-0.5-0.5-1.2-0.4-2.1-0.4c0.3,14,0.2,27.9,0.2,41.9
		c1.5,0.2,1.8,0.1,2.1-0.4l0,0c0.9-0.3,2.1-0.2,2.4,0.3c0.3,0.5,0.9,0.9,1.3,1.3c0.7,0.7,1.4,1.3,2.8,1.7c1.2,0.3,2.4,0.4,3.6,0.2
		c2.9-0.5,3.8-1.9,4.8-3.2c0.4-0.5-0.7-1.8-2.4-2.3c0-0.1,0-0.2-0.3-0.3c-0.2,0.5-1.1,0.9-1.3,1.4l0,0c-0.1-0.1-0.2-0.1-0.3,0
		c-1.1,0.1-1.5,0.5-1.1,1.1c-0.2,0.1-0.4,0.3-0.7,0.2c-0.4-0.1-0.3-0.3-0.3-0.4c0-0.3,0-0.5-0.1-0.8c-0.7,0.1-1.2-0.3-1.9-0.2
		c0,0-0.2-0.1-0.3-0.2c0.8-0.4,1.8-0.7,2.4-1.2c0.9-0.3,1.7-0.7,2.2-1.3c0.3-0.1,0.5-0.2,0.5-0.3c0.6-0.5,0.9-1,0.8-1.6
		c-0.1-0.4,0-0.7,0.1-1.1c0.1-0.4,0.1-0.8,0-1.3c-0.6,0.5-1,1-1.6,1.4c-0.3,0.1-0.5,0.2-0.6,0.3c-1,0.6-2.2,1.1-3.4,1.6
		c-1,0.4-1.9,0.9-2,1.6c0,0.3,0,0.6,0,0.9c-1.2,0.2-1.2,0.7-0.6,1.2c-0.8,0.1-1.5,0-2.2,0.2c-0.6,0.1-1.1,0.1-1.4-0.3
		c-0.4-0.4-0.5-0.8-0.5-1.3c0.1-11.8,0.1-23.7,0-35.5c0-0.5-0.1-1-0.2-1.5c0-0.3-0.1-0.5-0.8-0.6c0.2-0.2,0.4-0.3,0.7-0.2
		c0.4,0.2,0.7,0.1,1.1,0.1c0.7,0,1.4,0.1,2,0.3c0.2,0.1,0.4,0.1,0.4,0.3c0,0.4,0.2,0.8,0.3,1.2c0,2.3,0.1,4.6,0.2,7
		c0,0.1-0.1,0.3,0.2,0.4c0.5-0.2,0.4-0.5,0.4-0.8c0-0.9,0.1-1.8,0.1-2.7c0-1.2,0-2.4-0.3-3.5c0-0.2,0-0.4,0.3-0.6
		c0.1,0.1,0.1,0.1,0.2,0.2c0,0.1,0,0.1,0,0.2c0,0.1,0,0.1,0,0.2c-0.1,0.3-0.1,0.6,0,0.8c0,0.1,0,0.2,0,0.3c-0.1,0.2-0.1,0.3,0.1,0.5
		c0.1-0.2,0.2-0.4,0.3-0.5C166.6,114.3,166.7,114.2,166.9,114L166.9,114z M165.4,146.9c0,0.2-0.2,0.5,0.4,0.7
		C165.6,147.3,166.2,147,165.4,146.9c0.3-0.4,0.4-0.9,0.4-1.4c0.1-0.7-0.6-1.4-0.4-2.1c0.1-0.4,0-0.8,0-1.3c-0.1,0-0.1,0-0.2,0
		c0,1.5,0,3.1,0,4.6C165.2,146.7,165.2,146.8,165.4,146.9z M172.4,113.9c-0.3,0.1-0.6,0.1-0.8,0.3c-1.3,0.6-2.6,1.2-3.7,1.9
		c-1.2,0.7-1.8,1.6-1.7,2.6c0,0.7,0,1.4,0,2.1c0.5-0.3,0.6-0.6,1-0.9c1.1-0.7,2.3-1.4,3.6-2c0.8-0.4,1.7-0.7,2.4-1.2
		c0.3-0.2,0.6-0.4,0.6-0.6c0-0.9,0-1.8-0.3-2.8C173.1,113.4,172.6,113.6,172.4,113.9z M166.3,123.6c-0.4,0.9-0.2,1.8-0.1,2.7
		c0,0.1,0,0.3,0,0.5c1.4-1.5,3.9-2.4,5.9-3.6c0.7-0.4,1.5-0.7,1.7-1.2c0.3-1,0.1-2,0.1-3.1c-0.6,0.4-1,0.6-1.4,0.8
		c-1,0.5-2.1,1-3.2,1.6C168,122,166.8,122.7,166.3,123.6z M173.8,131.1c-1.3,1.2-3.1,2.1-5,2.9c-1.2,0.5-2,1.2-2.5,1.9
		c-0.3,1-0.1,2-0.1,3c0,0.1,0.2,0,0.2-0.1c0.5-0.3,0.8-0.6,1.3-0.9c1.6-0.8,3.4-1.5,4.8-2.5c0.6-0.4,1.2-0.8,1.3-1.3
		C173.9,133.2,173.9,132.2,173.8,131.1L173.8,131.1L173.8,131.1z M173.8,125c-1.5,1.2-3.6,1.9-5.5,2.8c-1,0.5-1.9,1.1-2,1.8
		c-0.2,1,0,2,0,3.1c0.3-0.1,0.3-0.3,0.5-0.4c0.4-0.3,0.9-0.7,1.4-0.9c1.6-0.8,3.3-1.5,4.7-2.4c0.5-0.3,0.9-0.7,0.9-1.1
		C173.8,126.9,173.8,126,173.8,125z M172.6,141.5c1.9-1.3,0.9-2.8,1.2-4.1c-0.5,0-0.5,0.2-0.6,0.3c-0.6,0.7-1.6,1.2-2.6,1.7
		c-1.2,0.6-2.3,1.2-3.5,1.7c-0.5,0.2-0.8,0.5-0.8,0.8c-0.1,1,0,2,0,3.1c0.5-0.4,1-0.6,1.6-0.9c1.1-0.5,2.1-1,3.2-1.5
		c0.6-0.3,0.8-0.6,0.7-1c-0.1-0.2-0.2-0.5,0.1-0.7C172.1,140.9,172.3,141.2,172.6,141.5z M165.5,121c0,0.6,0,1,0,1.5
		C165.9,122,165.8,121.5,165.5,121z"/>
	<path class="st6" d="M165.9,112.8c-0.3,0.2-0.3,0.4-0.3,0.6c0.3,1.2,0.3,2.3,0.3,3.5c0,0.9-0.2,1.8-0.1,2.7c0,0.3,0.1,0.6-0.4,0.8
		c-0.3-0.1-0.2-0.3-0.2-0.4c-0.1-2.3-0.1-4.6-0.2-7c0-0.4-0.3-0.8-0.3-1.2c0-0.1-0.1-0.2-0.4-0.3c-0.6-0.2-1.3-0.4-2-0.3
		c-0.4,0-0.8,0-1.1-0.1c-0.4-0.2-0.5,0-0.7,0.2c0.7,0,0.7,0.3,0.8,0.6c0.1,0.5,0.2,1,0.2,1.5c0.1,11.8,0.1,23.7,0,35.5
		c0,0.4,0.1,0.8,0.5,1.3c0.3,0.4,0.8,0.4,1.4,0.3c0.7-0.1,1.4-0.1,2.2-0.2c-0.6-0.5-0.6-0.9,0.6-1.2c0.1,0.2,0.1,0.4-0.1,0.6
		c-0.1,0.1-0.3,0.2,0.1,0.3c0.5,0.3,1,0.2,1.6,0.1c0.1,0.1,0.2,0.2,0.3,0.2c0.7-0.1,1.2,0.3,1.9,0.2c0,0.3,0.1,0.5,0.1,0.8
		c0,0.2-0.1,0.3,0.3,0.4c0.4,0.1,0.6-0.1,0.7-0.2c-0.5-0.5-0.1-0.9,1.1-1.1c0.1,0,0.2,0.1,0.3,0l0,0c0.7,0.1,1-0.1,1.4-0.4
		c0.3-0.3,0-0.5,0.2-0.8c1.7,0.5,2.8,1.7,2.4,2.3c-1,1.3-2,2.7-4.8,3.2c-1.3,0.2-2.4,0.1-3.6-0.2c-1.4-0.4-2.1-1-2.8-1.7
		c-0.4-0.4-1-0.8-1.3-1.3c-0.3-0.5-1.6-0.5-2.4-0.3c-0.1-0.4,0.1-0.7,0.3-1c0.1-0.1,0.1-0.3-0.2-0.3c-0.3-0.1-0.4,0-0.6,0.2
		c-0.3,0.4,0,0.7,0.1,1.1c0,0,0.2,0,0.3,0c-0.3,0.5-0.5,0.6-2.1,0.4c0-13.9,0.1-27.9-0.2-41.9c0.9-0.1,1.6-0.1,2.1,0.4
		c0.2,0.2,0.6,0.3,1,0.2c0.7-0.1,1.4-0.2,1.7-0.6c0.7-0.9,1.5-1.8,2.7-2.4c2.1-1.2,6.5-1.1,8.2,1c0.2,0.3,0.5,0.6,0.8,0.8
		c0.9,0.6,0.8,1.6-0.1,2.2c-0.1,0.1-0.2,0.1-0.3,0.2c-0.2,0.3-0.3,0.7-1,0.8c-0.1,0-0.1,0.2-0.2,0.3c-0.2-0.5,0-0.8-0.3-1.2
		c-0.3-0.4-1.1-0.3-1.7-0.4c-0.3-0.6-0.4-0.7-1.3-0.5c-0.3,0-0.3-0.2-0.5-0.3c-0.7,0.1-0.3,0.3-0.4,0.5c0,0,0,0.1,0,0.1
		c-0.4-0.1-0.7,0-1.1-0.1c0-0.1,0-0.3-0.4-0.2c0,0.1,0,0.3-0.2,0.4c-0.1,0-0.3,0-0.4,0c-0.3,0.1-0.5-0.2-0.9,0
		c-0.6,0.3-0.9,0.6-0.8,1C166.1,112.4,166.3,112.6,165.9,112.8z M171.3,108.6c-0.5-0.2-1-0.3-1.4-0.2c-0.7,0.2,0.1,0.6-0.2,0.8
		c0.5,0.1,1,0,1.4-0.1C171.2,109,171,108.8,171.3,108.6z M170.9,153.3c0.2-0.3,0.4-0.6,0-0.8c-0.3-0.2-0.7-0.1-1.1,0
		C169.7,152.9,169.7,153.4,170.9,153.3z M166.3,109.6c0.7,0,0.6-0.3,0.6-0.6C166,109,166,109.3,166.3,109.6z M172,154.5
		c0.8-0.1,0.8-0.1,1.1-0.5C172.3,154.1,172.3,154.1,172,154.5z M166.5,152.7c0.4-0.6,0.4-0.6-0.3-0.6
		C166.2,152.5,166.2,152.5,166.5,152.7z"/>
	<path class="st4" d="M166.2,136c0.5-0.8,1.2-1.4,2.5-1.9c1.9-0.8,3.8-1.7,5-2.9l0,0c0.2,1,0.2,2,0,3.1c-0.1,0.5-0.7,0.9-1.3,1.3
		c-1.4,0.9-3.2,1.7-4.8,2.5c-0.5,0.3-0.8,0.6-1.3,0.9C166.3,137.9,166.4,136.9,166.2,136z"/>
	<path class="st2" d="M173.8,125c0,1,0,1.9,0,2.9c0,0.4-0.5,0.8-0.9,1.1c-1.4,0.9-3.1,1.6-4.7,2.4c-0.6,0.3-1,0.6-1.4,0.9
		c-0.2,0.1-0.2,0.3-0.5,0.4c0-1-0.1-2.1,0-3.1c0.1-0.7,1-1.4,2-1.8C170.2,127,172.3,126.2,173.8,125z"/>
	<path class="st4" d="M166.3,123.6c0.5-1,1.7-1.7,3-2.3c1-0.5,2.1-1,3.2-1.6c0.4-0.2,0.8-0.5,1.4-0.8c0,1.1,0.1,2.1-0.1,3.1
		c-0.1,0.5-1,0.9-1.7,1.2c-2,1.1-4.5,2-5.9,3.6c0-0.2,0-0.3,0-0.5C166.4,125.4,166.3,124.5,166.3,123.6z"/>
	<path class="st2" d="M172.6,141.5c-0.3-0.3-0.5-0.6-0.7-0.8c-0.4,0.2-0.2,0.5-0.1,0.7c0.1,0.4-0.1,0.8-0.7,1
		c-1.1,0.5-2.1,1-3.2,1.5c-0.5,0.3-1,0.5-1.6,0.9c0-1.1,0-2.1,0-3.1c0-0.3,0.3-0.6,0.8-0.8c1.2-0.6,2.4-1.2,3.5-1.7
		c1-0.5,1.9-1,2.6-1.7c0.1-0.1,0.1-0.3,0.6-0.3C173.6,138.7,174.5,140.2,172.6,141.5z"/>
	<path class="st2" d="M172.4,113.9c0.2-0.3,0.7-0.4,1.1-0.7c0.3,1,0.4,1.9,0.3,2.8c0,0.3-0.3,0.4-0.6,0.6c-0.7,0.4-1.6,0.8-2.4,1.2
		c-1.3,0.6-2.6,1.2-3.6,2c-0.4,0.3-0.5,0.6-1,0.9c0-0.7,0-1.4,0-2.1c-0.1-1,0.5-1.8,1.7-2.6c1.1-0.7,2.4-1.3,3.7-1.9
		c0.3,0.5,0.1,1,0.2,1.5c-0.1,0.5-0.1,0.9-0.2,1.4c0.5-0.2,1.1-1,0.8-1.3c-0.1-0.1-0.3-0.1-0.5-0.1
		C172.2,115.1,172.3,114.5,172.4,113.9z"/>
	<path class="st4" d="M166,150c-0.4-0.1-0.2-0.2-0.1-0.3c0.2-0.2,0.3-0.4,0.1-0.6c0-0.3,0-0.6,0-0.9c0.1-0.8,1-1.2,2-1.6
		c1.2-0.5,2.4-1,3.4-1.6c0.3,0.1,0.1,0.3,0.2,0.5c0.2,0.7,0.1,1.5,0.6,2.2c-0.5,0.5-1.3,0.9-2.2,1.3c0-0.1-0.1-0.2-0.1-0.4
		c-0.2,0.4-0.8,0.5-1.1,0.3c-0.4-0.4-1.1-0.2-1.5-0.4c-0.4,0.3,0.1,0.6-0.4,0.9c-0.3-0.3,0-0.5-0.4-0.8
		C166.4,149,166.7,149.6,166,150z"/>
	<path class="st7" d="M167.8,111.1c0.1,0,0.3,0,0.4,0c0.2,0,0.4-0.1,0.6-0.1c0.4,0,0.8,0,1.1,0.1c0.1,0.3,0.3,0.6,0.4,0.9
		c-1,0.5-2.1,1-2.9,1.6c-0.6,0-0.5,0.2-0.5,0.4l0,0c-0.3,0-0.3,0.1-0.5,0.2c-0.1-0.2-0.1-0.4,0-0.6c0.2-0.1,0.2-0.3,0.1-0.4
		C166.3,112.4,166.9,111.7,167.8,111.1z"/>
	<path class="st7" d="M166,150c0.6-0.4,0.3-1,0.6-1.6c0.5,0.3,0.1,0.6,0.4,0.8c0.5-0.3,0-0.6,0.4-0.9c0.4,0.2,1.1,0.1,1.5,0.4
		c0.2,0.2,0.9,0.1,1.1-0.3c0.1,0.2,0.1,0.3,0.1,0.4c-0.7,0.5-1.7,0.8-2.4,1.2C167.1,150.3,166.5,150.3,166,150z"/>
	<path class="st4" d="M172.1,144.7c0.6-0.4,1-0.8,1.6-1.4c0.1,0.5,0.1,0.9,0,1.3c-0.1,0.4-0.1,0.7-0.1,1.1c0.1,0.6-0.1,1.1-0.8,1.6
		c-0.2-0.2-0.1-0.4-0.1-0.5C172.7,146.1,172.5,145.4,172.1,144.7z"/>
	<path class="st8" d="M172.1,144.7c0.4,0.7,0.6,1.4,0.6,2.1c0,0.2-0.1,0.4,0.1,0.5c0,0.2-0.2,0.3-0.5,0.3c-0.5-0.7-0.4-1.5-0.6-2.2
		c0-0.2,0.1-0.3-0.2-0.5C171.6,144.9,171.8,144.8,172.1,144.7z"/>
	<path class="st6" d="M165.4,146.9c-0.2,0-0.2-0.1-0.2-0.2c0-1.5,0-3.1,0-4.6c0.1,0,0.1,0,0.2,0c0,0.4,0.1,0.9,0,1.3
		c-0.2,0.7,0.5,1.4,0.4,2.1C165.8,145.9,165.7,146.4,165.4,146.9L165.4,146.9z"/>
	<path class="st4" d="M167.8,111.1c-0.9,0.6-1.5,1.2-1.3,2c0,0.1,0.1,0.3-0.1,0.4c0-0.1,0-0.2-0.2-0.2c0-0.1,0-0.1,0-0.2
		c0.2-0.1,0.2-0.1,0-0.2c-0.1-0.1-0.1-0.1-0.2-0.2c0.4-0.2,0.2-0.4,0.2-0.6c-0.1-0.4,0.2-0.7,0.8-1
		C167.3,110.9,167.5,111.2,167.8,111.1z"/>
	<path class="st4" d="M170.3,111.9c-0.1-0.3-0.3-0.6-0.4-0.9c0,0,0-0.1,0-0.1c0.4,0.1,0.9,0.2,0.9-0.2c0.9-0.2,1-0.1,1.3,0.5
		c-0.2,0.1-0.4,0.2-0.7,0.2c-0.1-0.1,0-0.4-0.5-0.3c-0.1,0.2-0.2,0.3,0.1,0.5C170.8,111.8,170.6,111.9,170.3,111.9z"/>
	<path class="st9" d="M173.9,149.4c-0.2,0.2,0.1,0.5-0.2,0.8c-0.4,0.3-0.7,0.5-1.4,0.4c0.2-0.5,1.1-0.9,1.3-1.4
		C173.8,149.2,173.9,149.3,173.9,149.4z"/>
	<path class="st10" d="M171.7,115.6c-0.1-0.5,0.1-1-0.2-1.5c0.2-0.2,0.5-0.2,0.8-0.3c0,0.6-0.2,1.2-0.5,1.8
		C171.8,115.6,171.8,115.6,171.7,115.6z"/>
	<path class="st8" d="M166.2,136c0.2,1,0,1.9,0.1,2.9c0,0.1-0.2,0.1-0.2,0.1C166.1,138,165.9,137,166.2,136z"/>
	<path class="st6" d="M165.5,121c0.4,0.6,0.5,1,0,1.5C165.5,122,165.5,121.5,165.5,121z"/>
	<path class="st8" d="M166.3,123.6c0,0.9,0.2,1.8-0.1,2.7C166.1,125.4,165.9,124.5,166.3,123.6z"/>
	<path class="st7" d="M171,111.7c-0.3-0.2-0.2-0.3-0.1-0.5c0.6-0.1,0.5,0.2,0.5,0.3C171.3,111.6,171.1,111.6,171,111.7z"/>
	<path class="st4" d="M166.4,114.2c0.1-0.1,0.2-0.2,0.5-0.2c-0.1,0.2-0.2,0.3-0.4,0.5c-0.1,0-0.2,0-0.3,0c0-0.1,0-0.2,0-0.3
		C166.2,114.2,166.3,114.2,166.4,114.2z"/>
	<path class="st6" d="M165.4,146.9c0.8,0.1,0.2,0.4,0.4,0.7C165.2,147.3,165.4,147.1,165.4,146.9L165.4,146.9z"/>
	<path class="st6" d="M166.4,114.2c-0.1,0-0.1,0-0.2,0c-0.1-0.3-0.1-0.6,0-0.8c0.2,0,0.1,0.1,0.2,0.2
		C166.3,113.8,166.3,114,166.4,114.2z"/>
	<path class="st4" d="M166.9,114c0-0.2-0.1-0.4,0.5-0.4C167.3,113.7,167.1,113.9,166.9,114z"/>
	<path class="st6" d="M166.2,114.5c0.1,0,0.2,0,0.3,0c-0.1,0.2-0.2,0.3-0.3,0.5C166,114.8,166.1,114.6,166.2,114.5z"/>
	<path class="st6" d="M166.1,113c0.2,0.1,0.2,0.1,0,0.2C166.1,113.1,166.1,113,166.1,113z"/>
	<polygon class="st4" points="173.8,131.1 173.8,131.1 173.7,131.1 	"/>
	<path class="st9" d="M172.3,150.5c-0.1,0.1-0.2,0-0.3,0C172.1,150.5,172.2,150.5,172.3,150.5z"/>
	<path class="st5" d="M171.3,108.6c-0.3,0.2-0.2,0.4-0.3,0.6c-0.4,0.1-0.8,0.1-1.4,0.1c0.4-0.3-0.4-0.6,0.2-0.8
		C170.3,108.3,170.8,108.4,171.3,108.6z"/>
	<path class="st5" d="M170.9,153.3c-1.3,0-1.2-0.4-1.1-0.9c0.4-0.1,0.9-0.2,1.1,0C171.3,152.7,171.1,153,170.9,153.3z"/>
	<path class="st5" d="M161.3,151.4c-0.1,0-0.3,0-0.3,0c-0.1-0.4-0.4-0.7-0.1-1.1c0.1-0.1,0.3-0.2,0.6-0.2c0.3,0.1,0.3,0.2,0.2,0.3
		C161.4,150.7,161.2,151,161.3,151.4L161.3,151.4z"/>
	<path class="st5" d="M170.8,110.7c0,0.4-0.5,0.3-0.9,0.2c0.1-0.2-0.3-0.4,0.4-0.5C170.4,110.5,170.5,110.7,170.8,110.7z"/>
	<path class="st5" d="M166.3,109.6c-0.2-0.3-0.2-0.5,0.6-0.6C166.9,109.3,167,109.5,166.3,109.6z"/>
	<path class="st5" d="M172,154.5c0.3-0.4,0.3-0.4,1.1-0.5C172.7,154.4,172.7,154.4,172,154.5z"/>
	<path class="st5" d="M166.5,152.7c-0.3-0.3-0.3-0.3-0.3-0.6C166.8,152.2,166.8,152.2,166.5,152.7z"/>
	<path class="st4" d="M168.7,111c-0.2,0.1-0.3,0.1-0.6,0.1c0.2-0.1,0.2-0.2,0.2-0.4C168.8,110.7,168.7,110.9,168.7,111z"/>
	<path class="st11" d="M171.7,115.6c0,0,0.1,0,0.1,0c0.2,0,0.4,0,0.5,0.1c0.3,0.2-0.3,1.1-0.8,1.3
		C171.6,116.5,171.7,116.1,171.7,115.6z"/>
</g>
<g>
	<path class="st5" d="M12.8,149.9c0-17.2,0-24.7,0-41.8c31,0-22.9-1,8.1-1c0,17.1-0.4,27.2-0.4,44.3
		C-10.5,151.4,43.9,149.9,12.8,149.9z M19.9,113.2c0.1,0.2,0.2,0.3,0.4,0.5c0.1,0.2,0.2,0.3,0.3,0.5c0.2-0.2,0.2-0.4,0.1-0.5
		c0-0.1,0-0.2,0-0.3c0.1-0.3,0.1-0.6,0-0.8c0-0.1,0-0.1,0-0.2c0-0.1,0-0.1,0-0.2c0.1-0.1,0.1-0.1,0.2-0.2c0.3,0.2,0.3,0.4,0.3,0.6
		c-0.3,1.2-0.3,2.3-0.3,3.5c0,0.9,0.2,1.8,0.1,2.7c0,0.3-0.1,0.6,0.4,0.8c0.3-0.1,0.2-0.3,0.2-0.4c0.1-2.3,0.1-4.6,0.2-7
		c0-0.4,0.3-0.8,0.3-1.2c0-0.1,0.1-0.2,0.4-0.3c0.6-0.2,1.3-0.4,2-0.3c0.4,0,0.8,0,1.1-0.1c0.4-0.2,0.5,0,0.7,0.2
		c-0.7,0-0.7,0.3-0.8,0.6c-0.1,0.5-0.2,1-0.2,1.5c-0.1,11.8-0.1,23.7,0,35.5c0,0.4-0.1,0.8-0.5,1.3c-0.3,0.4-0.8,0.4-1.4,0.3
		c-0.7-0.1-1.4-0.1-2.2-0.2c0.6-0.5,0.6-0.9-0.6-1.2c0-0.3,0-0.6,0-0.9c-0.1-0.8-1-1.2-2-1.6c-1.2-0.5-2.4-1-3.4-1.6
		c-0.1-0.1-0.3-0.2-0.6-0.3c-0.6-0.4-1-0.8-1.6-1.4c-0.1,0.5-0.1,0.9,0,1.3c0.1,0.4,0.1,0.7,0.1,1.1c-0.1,0.6,0.1,1.1,0.8,1.6
		c0,0.2,0.2,0.3,0.5,0.3c0.5,0.5,1.3,0.9,2.2,1.3c0.7,0.5,1.7,0.8,2.4,1.2c-0.1,0.1-0.2,0.2-0.3,0.2c-0.7-0.1-1.2,0.3-1.9,0.2
		c0,0.3-0.1,0.5-0.1,0.8c0,0.2,0.1,0.3-0.3,0.4c-0.4,0.1-0.6-0.1-0.7-0.2c0.5-0.5,0.1-0.9-1.1-1.1c-0.1-0.1-0.2-0.1-0.3,0l0,0
		c-0.2-0.5-1.1-0.9-1.3-1.4c-0.3,0.1-0.3,0.2-0.3,0.3c-1.7,0.5-2.8,1.7-2.4,2.3c1,1.3,2,2.7,4.8,3.2c1.3,0.2,2.4,0.1,3.6-0.2
		c1.4-0.4,2.1-1,2.8-1.7c0.4-0.4,1-0.8,1.3-1.3c0.3-0.5,1.6-0.5,2.4-0.3l0,0c0.3,0.5,0.5,0.6,2.1,0.4c0-13.9-0.1-27.9,0.2-41.9
		c-0.9-0.1-1.6-0.1-2.1,0.4c-0.2,0.2-0.6,0.3-1,0.2c-0.7-0.1-1.4-0.2-1.7-0.6c-0.7-0.9-1.5-1.8-2.7-2.4c-2.1-1.2-6.5-1.1-8.2,1
		c-0.2,0.3-0.5,0.6-0.8,0.8c-0.9,0.6-0.8,1.6,0.1,2.2c0.1,0.1,0.2,0.1,0.3,0.2c0.2,0.3,0.3,0.7,1,0.8c0.1,0,0.1,0.2,0.2,0.3
		c0.2-0.5,0-0.8,0.3-1.2c0.3-0.4,1.1-0.3,1.7-0.4c0.2,0.1,0.4,0.2,0.7,0.2c0.1,0.1,0.3,0.2,0.4,0.2c0.2,0.1,0.4,0.2,0.7,0.3
		c1,0.5,2.1,1,2.9,1.6C19.5,112.9,19.6,113.1,19.9,113.2L19.9,113.2z M21.6,145.8c0-1.5,0-3.1,0-4.6c-0.1,0-0.1,0-0.2,0
		c0,0.4-0.1,0.9,0,1.3c0.2,0.7-0.5,1.4-0.4,2.1c0.1,0.5,0.1,1,0.4,1.4c-0.8,0.1-0.2,0.4-0.4,0.7c0.6-0.2,0.4-0.5,0.4-0.7
		C21.5,146,21.6,145.9,21.6,145.8z M13.3,112.4c-0.3,1-0.4,1.9-0.3,2.8c0,0.3,0.3,0.4,0.6,0.6c0.7,0.4,1.6,0.8,2.4,1.2
		c1.3,0.6,2.6,1.2,3.6,2c0.4,0.3,0.5,0.6,1,0.9c0-0.7,0-1.4,0-2.1c0.1-1-0.5-1.8-1.7-2.6c-1.1-0.7-2.4-1.3-3.7-1.9
		c-0.2-0.2-0.5-0.2-0.8-0.3C14.2,112.8,13.7,112.6,13.3,112.4z M17.5,120.5c-1-0.5-2.1-1-3.2-1.6c-0.4-0.2-0.8-0.5-1.4-0.8
		c0,1.1-0.1,2.1,0.1,3.1c0.1,0.5,1,0.9,1.7,1.2c2,1.1,4.5,2,5.9,3.6c0-0.2,0-0.3,0-0.5c0.1-0.9,0.3-1.8-0.1-2.7
		C20,121.9,18.8,121.2,17.5,120.5z M13,130.3L13,130.3c-0.2,1-0.1,2.1,0,3.1c0.1,0.5,0.7,0.9,1.3,1.3c1.4,0.9,3.2,1.7,4.8,2.5
		c0.5,0.3,0.8,0.6,1.3,0.9c0,0.1,0.2,0.1,0.2,0.1c0-1,0.2-2-0.1-3c-0.5-0.8-1.2-1.4-2.5-1.9C16.1,132.4,14.3,131.5,13,130.3
		L13,130.3z M12.9,127.1c0,0.4,0.5,0.8,0.9,1.1c1.4,0.9,3.1,1.6,4.7,2.4c0.6,0.3,1,0.6,1.4,0.9c0.2,0.1,0.2,0.3,0.5,0.4
		c0-1,0.1-2.1,0-3.1c-0.1-0.7-1-1.4-2-1.8c-1.9-0.9-4-1.6-5.5-2.8C12.9,125.2,12.9,126.1,12.9,127.1z M14.8,139.9
		c0.4,0.2,0.2,0.5,0.1,0.7c-0.1,0.4,0.1,0.8,0.7,1c1.1,0.5,2.1,1,3.2,1.5c0.5,0.3,1,0.5,1.6,0.9c0-1.1,0-2.1,0-3.1
		c0-0.3-0.3-0.6-0.8-0.8c-1.2-0.6-2.4-1.2-3.5-1.7c-1-0.5-1.9-1-2.6-1.7c-0.1-0.1-0.1-0.3-0.6-0.3c0.3,1.4-0.7,2.8,1.2,4.1
		C14.4,140.4,14.6,140.1,14.8,139.9z M21.3,121.7c0-0.5,0-1,0-1.5C20.9,120.7,20.8,121.2,21.3,121.7z"/>
	<path class="st6" d="M20.7,111.4c0.1-0.4-0.2-0.7-0.8-1c-0.4-0.2-0.6,0.1-0.9,0c-0.1,0-0.3,0-0.4,0c-0.2-0.1-0.2-0.2-0.2-0.4
		c-0.4,0-0.3,0.1-0.4,0.2c-0.4,0-0.8,0-1.1,0.1c0,0,0-0.1,0-0.1c-0.1-0.2,0.3-0.4-0.4-0.5c-0.2,0.1-0.2,0.2-0.5,0.3
		c-0.9-0.2-1-0.1-1.3,0.5c-0.6,0.1-1.4-0.1-1.7,0.4c-0.3,0.3-0.1,0.7-0.3,1.2c-0.1-0.2-0.1-0.3-0.2-0.3c-0.7-0.1-0.8-0.5-1-0.8
		c0-0.1-0.2-0.1-0.3-0.2c-0.9-0.6-1-1.6-0.1-2.2c0.4-0.2,0.6-0.5,0.8-0.8c1.7-2.1,6.1-2.2,8.2-1c1.2,0.7,2.1,1.5,2.7,2.4
		c0.3,0.4,1,0.5,1.7,0.6c0.4,0.1,0.8,0,1-0.2c0.5-0.5,1.2-0.4,2.1-0.4c-0.3,14-0.2,27.9-0.2,41.9c-1.5,0.2-1.8,0.1-2.1-0.4
		c0.1,0,0.3,0,0.3,0c0.1-0.4,0.4-0.7,0.1-1.1c-0.1-0.1-0.3-0.2-0.6-0.2c-0.3,0.1-0.3,0.2-0.2,0.3c0.2,0.3,0.5,0.6,0.3,1
		c-0.9-0.3-2.1-0.2-2.4,0.3c-0.3,0.5-0.9,0.9-1.3,1.3c-0.7,0.7-1.4,1.3-2.8,1.7c-1.2,0.3-2.4,0.4-3.6,0.2c-2.9-0.5-3.8-1.9-4.8-3.2
		c-0.4-0.5,0.7-1.8,2.4-2.3c0.2,0.2-0.1,0.5,0.2,0.8c0.4,0.3,0.7,0.5,1.4,0.4l0,0c0.1,0.1,0.2,0,0.3,0c1.1,0.1,1.5,0.5,1.1,1.1
		c0.2,0.1,0.4,0.3,0.7,0.2c0.4-0.1,0.3-0.3,0.3-0.4c0-0.3,0-0.5,0.1-0.8c0.7,0.1,1.2-0.3,1.9-0.2c0,0,0.2-0.1,0.3-0.2
		c0.6,0.1,1.1,0.2,1.6-0.1c0.4-0.1,0.2-0.2,0.1-0.3c-0.2-0.2-0.3-0.4-0.1-0.6c1.2,0.2,1.2,0.7,0.6,1.2c0.8,0.1,1.5,0,2.2,0.2
		c0.6,0.1,1.1,0.1,1.4-0.3c0.4-0.4,0.5-0.8,0.5-1.3c-0.1-11.8-0.1-23.7,0-35.5c0-0.5,0.1-1,0.2-1.5c0-0.3,0.1-0.5,0.8-0.6
		c-0.2-0.2-0.4-0.3-0.7-0.2c-0.4,0.2-0.7,0.1-1.1,0.1c-0.7,0-1.4,0.1-2,0.3c-0.2,0.1-0.4,0.1-0.4,0.3c0,0.4-0.2,0.8-0.3,1.2
		c0,2.3-0.1,4.6-0.2,7c0,0.1,0.1,0.3-0.2,0.4c-0.5-0.2-0.4-0.5-0.4-0.8c0-0.9-0.1-1.8-0.1-2.7c0-1.2,0-2.4,0.3-3.5
		c0-0.2,0-0.4-0.3-0.6C20.5,111.8,20.6,111.6,20.7,111.4z M15.8,108.4c0.4,0.1,0.8,0.1,1.4,0.1c-0.4-0.3,0.4-0.6-0.2-0.8
		c-0.5-0.2-0.9-0.1-1.4,0.2C15.8,108,15.6,108.2,15.8,108.4z M16.9,151.7c-0.4-0.1-0.9-0.2-1.1,0c-0.4,0.2-0.1,0.5,0,0.8
		C17.1,152.6,17,152.1,16.9,151.7z M20,108.2c-0.1,0.3-0.2,0.5,0.6,0.6C20.7,108.5,20.7,108.2,20,108.2z M13.6,153.2
		c0.4,0.4,0.4,0.4,1.1,0.5C14.5,153.3,14.5,153.3,13.6,153.2z M20.6,151.4c-0.6,0-0.6,0-0.3,0.6C20.6,151.7,20.6,151.7,20.6,151.4z"
		/>
	<path class="st4" d="M20.5,135.2c-0.5-0.8-1.2-1.4-2.5-1.9c-1.9-0.8-3.8-1.7-5-2.9l0,0c-0.2,1-0.2,2,0,3.1c0.1,0.5,0.7,0.9,1.3,1.3
		c1.4,0.9,3.2,1.7,4.8,2.5c0.5,0.3,0.8,0.6,1.3,0.9C20.5,137.1,20.3,136.1,20.5,135.2z"/>
	<path class="st2" d="M12.9,124.2c0,1,0,1.9,0,2.9c0,0.4,0.5,0.8,0.9,1.1c1.4,0.9,3.1,1.6,4.7,2.4c0.6,0.3,1,0.6,1.4,0.9
		c0.2,0.1,0.2,0.3,0.5,0.4c0-1,0.1-2.1,0-3.1c-0.1-0.7-1-1.4-2-1.8C16.5,126.2,14.4,125.4,12.9,124.2z"/>
	<path class="st4" d="M20.5,122.8c-0.5-1-1.7-1.7-3-2.3c-1-0.5-2.1-1-3.2-1.6c-0.4-0.2-0.8-0.5-1.4-0.8c0,1.1-0.1,2.1,0.1,3.1
		c0.1,0.5,1,0.9,1.7,1.2c2,1.1,4.5,2,5.9,3.6c0-0.2,0-0.3,0-0.5C20.3,124.6,20.5,123.7,20.5,122.8z"/>
	<path class="st2" d="M14.1,140.7c0.3-0.3,0.5-0.6,0.7-0.8c0.4,0.2,0.2,0.5,0.1,0.7c-0.1,0.4,0.1,0.8,0.7,1c1.1,0.5,2.1,1,3.2,1.5
		c0.5,0.3,1,0.5,1.6,0.9c0-1.1,0-2.1,0-3.1c0-0.3-0.3-0.6-0.8-0.8c-1.2-0.6-2.4-1.2-3.5-1.7c-1-0.5-1.9-1-2.6-1.7
		c-0.1-0.1-0.1-0.3-0.6-0.3C13.2,137.9,12.2,139.4,14.1,140.7z"/>
	<path class="st2" d="M14.4,113.1c-0.2-0.3-0.7-0.4-1.1-0.7c-0.3,1-0.4,1.9-0.3,2.8c0,0.3,0.3,0.4,0.6,0.6c0.7,0.4,1.6,0.8,2.4,1.2
		c1.3,0.6,2.6,1.2,3.6,2c0.4,0.3,0.5,0.6,1,0.9c0-0.7,0-1.4,0-2.1c0.1-1-0.5-1.8-1.7-2.6c-1.1-0.7-2.4-1.3-3.7-1.9
		c-0.3,0.5-0.1,1-0.2,1.5c0.1,0.5,0.1,0.9,0.2,1.4c-0.5-0.2-1.1-1-0.8-1.3c0.1-0.1,0.3-0.1,0.5-0.1
		C14.6,114.3,14.4,113.7,14.4,113.1z"/>
	<path class="st4" d="M20.7,149.2c0.4-0.1,0.2-0.2,0.1-0.3c-0.2-0.2-0.3-0.4-0.1-0.6c0-0.3,0-0.6,0-0.9c-0.1-0.8-1-1.2-2-1.6
		c-1.2-0.5-2.4-1-3.4-1.6c-0.3,0.1-0.1,0.3-0.2,0.5c-0.2,0.7-0.1,1.5-0.6,2.2c0.5,0.5,1.3,0.9,2.2,1.3c0-0.1,0.1-0.2,0.1-0.4
		c0.2,0.4,0.8,0.5,1.1,0.3c0.4-0.4,1.1-0.2,1.5-0.4c0.4,0.3-0.1,0.6,0.4,0.9c0.3-0.3,0-0.5,0.4-0.8
		C20.4,148.2,20.1,148.8,20.7,149.2z"/>
	<path class="st7" d="M19,110.3c-0.1,0-0.3,0-0.4,0c-0.2,0-0.4-0.1-0.6-0.1c-0.4,0-0.8,0-1.1,0.1c-0.1,0.3-0.3,0.6-0.4,0.9
		c1,0.5,2.1,1,2.9,1.6c0.6,0,0.5,0.2,0.5,0.4l0,0c0.3,0,0.3,0.1,0.5,0.2c0.1-0.2,0.1-0.4,0-0.6c-0.2-0.1-0.2-0.3-0.1-0.4
		C20.4,111.6,19.9,110.9,19,110.3z"/>
	<path class="st7" d="M20.7,149.2c-0.6-0.4-0.3-1-0.6-1.6c-0.5,0.3-0.1,0.6-0.4,0.8c-0.5-0.3,0-0.6-0.4-0.9
		c-0.4,0.2-1.1,0.1-1.5,0.4c-0.2,0.2-0.9,0.1-1.1-0.3c-0.1,0.2-0.1,0.3-0.1,0.4c0.7,0.5,1.7,0.8,2.4,1.2
		C19.7,149.5,20.2,149.5,20.7,149.2z"/>
	<path class="st4" d="M14.7,143.9c-0.6-0.4-1-0.8-1.6-1.4c-0.1,0.5-0.1,0.9,0,1.3c0.1,0.4,0.1,0.7,0.1,1.1c-0.1,0.6,0.1,1.1,0.8,1.6
		c0.2-0.2,0.1-0.4,0.1-0.5C14.1,145.3,14.3,144.6,14.7,143.9z"/>
	<path class="st8" d="M14.7,143.9c-0.4,0.7-0.6,1.4-0.6,2.1c0,0.2,0.1,0.4-0.1,0.5c0,0.2,0.2,0.3,0.5,0.3c0.5-0.7,0.4-1.5,0.6-2.2
		c0-0.2-0.1-0.3,0.2-0.5C15.1,144.1,14.9,144,14.7,143.9z"/>
	<path class="st6" d="M21.4,146c0.2,0,0.2-0.1,0.2-0.2c0-1.5,0-3.1,0-4.6c-0.1,0-0.1,0-0.2,0c0,0.4-0.1,0.9,0,1.3
		c0.2,0.7-0.5,1.4-0.4,2.1C21,145.1,21.1,145.6,21.4,146L21.4,146z"/>
	<path class="st4" d="M19,110.3c0.9,0.6,1.5,1.2,1.3,2c0,0.1-0.1,0.3,0.1,0.4c0-0.1,0-0.2,0.2-0.2c0-0.1,0-0.1,0-0.2
		c-0.2-0.1-0.2-0.1,0-0.2c0.1-0.1,0.1-0.1,0.2-0.2c-0.4-0.2-0.2-0.4-0.2-0.6c0.1-0.4-0.2-0.7-0.8-1C19.5,110.1,19.3,110.4,19,110.3z
		"/>
	<path class="st4" d="M16.5,111.1c0.1-0.3,0.3-0.6,0.4-0.9c0,0,0-0.1,0-0.1c-0.4,0.1-0.9,0.2-0.9-0.2c-0.9-0.2-1-0.1-1.3,0.5
		c0.2,0.1,0.4,0.2,0.7,0.2c0.1-0.1,0-0.4,0.5-0.3c0.1,0.2,0.2,0.3-0.1,0.5C16,111,16.2,111.1,16.5,111.1z"/>
	<path class="st9" d="M12.9,148.6c0.2,0.2-0.1,0.5,0.2,0.8c0.4,0.3,0.7,0.5,1.4,0.4c-0.2-0.5-1.1-0.9-1.3-1.4
		C12.9,148.4,12.9,148.5,12.9,148.6z"/>
	<path class="st10" d="M15,114.8c0.1-0.5-0.1-1,0.2-1.5c-0.2-0.2-0.5-0.2-0.8-0.3c0,0.6,0.2,1.2,0.5,1.8
		C14.9,114.8,15,114.8,15,114.8z"/>
	<path class="st8" d="M20.5,135.2c-0.2,1,0,1.9-0.1,2.9c0,0.1,0.2,0.1,0.2,0.1C20.6,137.2,20.8,136.2,20.5,135.2z"/>
	<path class="st6" d="M21.3,120.2c-0.4,0.6-0.5,1,0,1.5C21.3,121.2,21.3,120.7,21.3,120.2z"/>
	<path class="st8" d="M20.5,122.8c0,0.9-0.2,1.8,0.1,2.7C20.7,124.6,20.8,123.7,20.5,122.8z"/>
	<path class="st7" d="M15.8,110.8c0.3-0.2,0.2-0.3,0.1-0.5c-0.6-0.1-0.5,0.2-0.5,0.3C15.5,110.8,15.6,110.8,15.8,110.8z"/>
	<path class="st4" d="M20.4,113.4c-0.1-0.1-0.2-0.2-0.5-0.2c0.1,0.2,0.2,0.3,0.4,0.5c0.1,0,0.2,0,0.3,0c0-0.1,0-0.2,0-0.3
		C20.5,113.4,20.5,113.4,20.4,113.4z"/>
	<path class="st6" d="M21.4,146.1c-0.8,0.1-0.2,0.4-0.4,0.7C21.6,146.5,21.3,146.3,21.4,146.1L21.4,146.1z"/>
	<path class="st6" d="M20.4,113.4c0.1,0,0.1,0,0.2,0c0.1-0.3,0.1-0.6,0-0.8c-0.2,0-0.1,0.1-0.2,0.2C20.5,113,20.5,113.2,20.4,113.4z
		"/>
	<path class="st4" d="M19.9,113.2c0-0.2,0.1-0.4-0.5-0.4C19.5,112.9,19.6,113.1,19.9,113.2z"/>
	<path class="st6" d="M20.6,113.7c-0.1,0-0.2,0-0.3,0c0.1,0.2,0.2,0.3,0.3,0.5C20.7,114,20.7,113.8,20.6,113.7z"/>
	<path class="st6" d="M20.6,112.2c-0.2,0.1-0.2,0.1,0,0.2C20.6,112.3,20.6,112.2,20.6,112.2z"/>
	<polygon class="st4" points="13,130.3 13,130.3 13,130.3 	"/>
	<path class="st9" d="M14.5,149.7c0.1,0.1,0.2,0,0.3,0C14.7,149.7,14.6,149.7,14.5,149.7z"/>
	<path class="st5" d="M15.4,107.8c0.3,0.2,0.2,0.4,0.3,0.6c0.4,0.1,0.8,0.1,1.4,0.1c-0.4-0.3,0.4-0.6-0.2-0.8
		C16.4,107.5,15.9,107.6,15.4,107.8z"/>
	<path class="st5" d="M15.8,152.5c1.3,0,1.2-0.4,1.1-0.9c-0.4-0.1-0.9-0.2-1.1,0C15.4,151.9,15.7,152.2,15.8,152.5z"/>
	<path class="st5" d="M25.5,150.6c0.1,0,0.3,0,0.3,0c0.1-0.4,0.4-0.7,0.1-1.1c-0.1-0.1-0.3-0.2-0.6-0.2c-0.3,0.1-0.3,0.2-0.2,0.3
		C25.4,149.9,25.6,150.2,25.5,150.6L25.5,150.6z"/>
	<path class="st5" d="M16,109.9c0,0.4,0.5,0.3,0.9,0.2c-0.1-0.2,0.3-0.4-0.4-0.5C16.3,109.7,16.3,109.9,16,109.9z"/>
	<path class="st5" d="M20.5,108.8c0.2-0.3,0.2-0.5-0.6-0.6C19.9,108.5,19.8,108.7,20.5,108.8z"/>
	<path class="st5" d="M14.8,153.7c-0.3-0.4-0.3-0.4-1.1-0.5C14,153.6,14,153.6,14.8,153.7z"/>
	<path class="st5" d="M20.3,151.9c0.3-0.3,0.3-0.3,0.3-0.6C19.9,151.4,19.9,151.4,20.3,151.9z"/>
	<path class="st4" d="M18,110.2c0.2,0.1,0.3,0.1,0.6,0.1c-0.2-0.1-0.2-0.2-0.2-0.4C18,109.9,18.1,110.1,18,110.2z"/>
	<path class="st11" d="M15,114.8c0,0-0.1,0-0.1,0c-0.2,0-0.4,0-0.5,0.1c-0.3,0.2,0.3,1.1,0.8,1.3C15.1,115.7,15.1,115.3,15,114.8z"
		/>
</g>
<g id="layer104">
	<path class="st12" d="M21.2,130.5v-14.3c0-1.8,1.4-3.2,3.2-3.2H51h27.7c1.3,0,2.5,0.8,3,2l0.2,0.5c1.2,3.2,2.5,3.1,7.2-0.1l1.9-1.3
		c1.1-0.8,2.5-0.8,3.6,0l1.9,1.3c4.5,3.2,5.7,3.3,7.2,0.1l0.3-0.6c0.5-1.2,1.6-1.9,2.9-1.9H135h27c1.8,0,3.2,1.4,3.2,3.2v14.3v14.3
		c0,1.8-1.4,3.2-3.2,3.2H93.2H24.3c-1.8,0-3.2-1.4-3.2-3.2V130.5z"/>
	<path class="st12" d="M104.6,107.5c-0.8-3-2-3.1-7.1-0.5c-4.9,2.5-4.7,2.5-9.1-0.5c-2.9-2-4-2.3-5.1-1.4c-1.1,0.9-1.7,0.8-2.9-0.7
		c-2.4-3.1-5.4-9.2-5.4-11c0-0.9-0.9-2.7-1.9-4c-2.4-3-3.9-13-2.2-14.7c0.6-0.6,1.1-3.4,1.1-6.1c0-2.8,0.9-7.5,1.3-8
		c0.4-0.7,7.7-0.3,20.6-0.2h20.4l-0.3,6.8c0,3.1,0.5,6,1.1,6.4c1.9,1.2,0.5,12.8-2,16c-1.1,1.5-2.1,3.5-2.1,4.6c0,1-1,3.7-2.2,5.8
		c-2,3.3-2.1,4.3-1.1,6.9c1,2.7,0.9,3.1-0.7,3.1C105.9,110,105,109,104.6,107.5z M90.8,96.5c1.9-1.4,2.4-1.4,5.1,0
		c3.7,1.8,7.1,1.9,9.5,0.2c2.3-1.7,1.8-6-0.8-6.5c-1.6-0.3-1.8,0-1.2,2.5l0.8,2.8l-3.1-2.9c-4.5-4.3-10.3-4.5-14.9-0.5
		C82.7,95.2,81,96,83,93.5c1.3-1.6,0.6-3.5-1.5-3.5c-1.2,0-2.5,2.1-2.5,4C79,97.6,86.8,99.3,90.8,96.5z M88.3,82
		c1.3-1.1,2.8-3.1,3.1-4.5c0.9-3.4,2.5-3.2,3.8,0.5c1.9,5.7,11.4,8.2,14.2,3.8c2-3.2,4.1-9.6,3.4-10.4c-0.3-0.3-4.1-0.5-8.5-0.3
		c-9.2,0.2-12.4,0.2-21.9-0.1c-3.9-0.2-7.6,0-8.2,0.4c-1.2,0.7,1.2,8.3,3.5,10.9C79.8,84.6,85.1,84.5,88.3,82z"/>
	<path class="st12" d="M78,80.1c-2.5-4.7-0.2-8.1,5.5-8.1c4.3,0,6.7,1.8,5.9,4.3c-1.1,3.7-3.5,5.7-7,5.7C80.1,82,78.7,81.4,78,80.1z
		"/>
	<path class="st12" d="M98.6,79.8c-2.7-3.9-2.1-6.5,1.8-7.2c1.9-0.4,4.7-0.4,6.1,0c2.3,0.6,2.6,1,2.3,4.8c-0.3,4-0.4,4.1-4.5,4.4
		C101,82,99.9,81.7,98.6,79.8z"/>
</g>
<g>
	<path class="st1" d="M79.5,122.8c0,1.9-1.2,3.5-3.5,4.8c-1,0.6-1.7,0.8-2.1,0.8c-0.1,0-0.1,0-0.1-0.1c0-0.1,0.2-0.2,0.5-0.3
		c1.3-0.5,2.5-1.3,3.3-2.3c0.9-1,1.3-2,1.3-3c0-1-0.3-1.7-1-2.3c-0.7-0.6-1.5-0.9-2.6-0.9c-3.4,0-6.5,2-9.3,5.9
		c-0.5,0.7-1.9,3.3-4.3,7.9c-2.6,4.9-5.6,8-9.1,9.1c1,0.1,1.9,0.2,2.5,0.2c2.2,0,4.1-0.7,5.6-2.2c1.3-1.2,2.5-2.7,3.6-4.3
		c0.1-0.2,0.2-0.3,0.3-0.3c0,0,0.1,0,0.1,0.1c0,0.1-0.6,0.9-1.7,2.4c-1.3,1.7-2.6,2.9-3.7,3.5c-1.1,0.6-2.5,1-4.1,1
		c-1,0-2.1-0.1-3.3-0.3c-0.9,0.2-1.7,0.4-2.4,0.4c-0.6,0-0.9-0.1-0.9-0.4c0-0.3,0.5-0.5,1.5-0.5c0.6,0,1.2,0.1,2.1,0.2
		c1.6-0.7,2.8-1.6,3.6-2.6c0.9-1.1,2.2-3.4,4-7l0.3-0.6h-7c-1.1,2.1-2.1,3.7-2.9,4.7s-1.9,2-3.3,2.9c-3.1,2.1-6,3.1-8.9,3.1
		c-1.7,0-3-0.4-4.1-1.1c-1-0.7-1.6-1.6-1.6-2.8c0-0.6,0.2-1.1,0.5-1.5c0.3-0.4,0.8-0.7,1.3-0.7c0.8,0,1.2,0.4,1.2,1.2
		c0,0.4-0.1,0.7-0.4,1c-0.2,0.3-0.5,0.4-0.9,0.4c-0.6,0-0.8-0.3-0.8-0.8c0-0.3,0-0.5-0.1-0.5c-0.2,0-0.3,0.3-0.3,1
		c0,1,0.5,1.8,1.4,2.4c0.9,0.6,2.1,0.9,3.6,0.9c2.5,0,4.8-0.8,6.7-2.3s4.1-4.2,6.5-8.1h-5.5l0.1-0.4H51c0.1-0.2,0.4-0.6,0.7-1.2
		c2.5-4.1,4.9-7,7.1-8.6c0.5-0.3,1.1-0.7,1.9-1.1c0.8-0.4,1.3-0.6,1.4-0.6c0.1,0,0.1,0.1,0.1,0.1s-0.1,0.2-0.4,0.3
		c-1.5,0.6-2.8,1.6-4,3.1c-1.2,1.5-2.8,4.1-4.8,8h7c2.3-4,4.7-7.2,7.3-9.4c2.6-2.2,5.2-3.4,7.7-3.4c1.2,0,2.2,0.3,3,1
		C79.1,120.9,79.5,121.8,79.5,122.8z M56,123.2c0,0.3-0.4,0.8-1.1,1.5c-1.1,1.1-2.1,1.7-3,1.7c-0.7,0-1.3-0.2-1.7-0.7
		c-0.5-0.5-0.7-1.1-0.7-1.8c0-0.7,0.2-1.5,0.7-2.5c0.6-1.2,0.9-2.1,0.9-2.5c0-0.6-0.3-1.1-0.9-1.5s-1.3-0.6-2.3-0.6
		c-2.7,0-5.2,1.1-7.6,3.2c-2.4,2.2-3.5,4.5-3.5,6.9c0,1.3,0.4,2.3,1.2,3.1c0.8,0.8,1.8,1.2,3,1.2c2.4,0,4.4-1.1,6-3.3
		c0-0.1,0.1-0.1,0.1-0.1c0.1,0,0.1,0.1,0.1,0.2c0,0.3-0.4,0.7-1.2,1.4c-1.6,1.4-3.3,2.1-5.2,2.1c-1.3,0-2.4-0.4-3.2-1.3
		c-0.8-0.8-1.2-1.9-1.2-3.3c0-2.6,1.2-5,3.6-7.2c2.4-2.2,5.1-3.3,7.9-3.3c2.5,0,3.8,1.1,3.8,3.3c0,0.8-0.3,1.7-0.8,2.7
		c-0.5,1.1-0.8,1.8-0.8,2.1c0,0.9,0.5,1.4,1.5,1.4c0.6,0,1.3-0.3,2.1-0.8c0.8-0.6,1.4-1.2,1.8-2c0.1-0.1,0.1-0.2,0.2-0.2
		C56,123.1,56,123.2,56,123.2z"/>
	<path class="st1" d="M77,136.6c0,0.3-0.9,1.4-2.6,3.5c-1.4,1.7-2.5,2.6-3.4,2.6c-0.6,0-1-0.2-1.4-0.6c-0.3-0.4-0.5-0.9-0.5-1.6
		c0-0.7,0.2-1.4,0.6-2.1c-1.2,1.7-2.1,2.8-2.8,3.4c-0.6,0.6-1.3,0.9-1.9,0.9c-0.6,0-1.2-0.3-1.6-0.8s-0.7-1.2-0.7-2.1
		c0-2.3,1.6-4.4,4.9-6.1c1.4-0.8,2.6-1.2,3.5-1.2c0.7,0,1.1,0.4,1.1,1.1c0,0.2,0,0.5-0.1,0.8l0.9-1.8c0.4,0.1,0.7,0.1,1,0.1
		c0.3,0,0.7,0,1.3-0.1l-3.2,5.3c-1.1,1.9-1.7,3.1-1.7,3.7c0,0.6,0.2,0.8,0.7,0.8c0.5,0,1.3-0.6,2.3-1.7c1.1-1.1,2.1-2.5,3.2-4.1
		c0.1-0.1,0.1-0.2,0.2-0.2C76.9,136.5,77,136.5,77,136.6z M72,133.6c0-0.6-0.3-0.9-0.8-0.9c-1.1,0-2.6,1.1-4.4,3.3
		c-1.8,2.2-2.7,3.9-2.7,5.3c0,0.8,0.3,1.2,1,1.2c0.8,0,2.3-1.4,4.3-4.1C71.1,136,72,134.4,72,133.6z M75.9,127.7
		c0,0.7-0.3,1.4-0.9,2.1c-0.6,0.7-1.3,1-1.9,1s-1-0.3-1-1c0-0.7,0.3-1.4,0.9-2.1c0.6-0.7,1.3-1,2-1C75.6,126.7,75.9,127,75.9,127.7z
		 M75.6,127.6c0-0.4-0.2-0.6-0.6-0.6c-0.5,0-1,0.3-1.6,1c-0.6,0.7-0.9,1.3-0.9,1.8c0,0.4,0.2,0.6,0.5,0.6c0.5,0,1.1-0.3,1.7-1
		C75.3,128.7,75.6,128.1,75.6,127.6z"/>
	<path class="st1" d="M87.3,136.6c0,0.1-0.4,0.5-1.1,1.3c-0.9,1-1.8,1.5-2.6,1.5c-0.9,0-1.4-0.5-1.4-1.6c0-0.3,0.1-0.8,0.2-1.3
		c-0.8,0.7-1.4,1.3-1.9,2c-0.5,0.7-1.3,2-2.5,4c-0.6,0-1-0.1-1.1-0.1c0,0-0.4,0-1.1,0.1l3-4.8c1.5-2.4,2.2-3.9,2.2-4.5
		c0-0.3-0.1-0.5-0.4-0.5c-0.7,0-1.9,1.3-3.7,3.9c-0.1,0.2-0.2,0.3-0.3,0.3c0,0-0.1,0-0.1-0.1c0-0.1,0-0.1,0.1-0.1l0.3-0.5
		c1.9-2.5,3.1-3.7,3.8-3.7c1,0,1.4,0.6,1.4,1.9c0,0.9-0.5,2.2-1.5,3.7c0.6-0.7,1.2-1.3,1.8-1.8c0.5-1.1,1-2,1.7-2.7
		c0.7-0.7,1.3-1.1,1.8-1.1c0.4,0,0.6,0.2,0.6,0.5c0,0.6-0.8,1.4-2.5,2.5c-0.3,0.2-0.7,0.4-1.2,0.7l-0.2,0.2c-0.2,0.6-0.3,1-0.3,1.4
		c0,1,0.4,1.5,1.1,1.5c0.9,0,2-0.8,3.1-2.3c0.2-0.3,0.4-0.4,0.5-0.4C87.2,136.5,87.3,136.5,87.3,136.6z"/>
	<path class="st1" d="M96.9,123.8c-0.1,0.2-0.2,0.4-0.5,0.7c-0.3,0.5-0.8,1.3-1.4,2.3c-0.3,0.5-0.8,1.3-1.4,2.3l-3.1,5
		c-1,1.7-1.9,3.2-2.6,4.6c-0.8,1.5-1.5,2.7-2,3.5l-0.2,0.4c-0.3-0.1-0.6-0.1-1-0.1c-0.3,0-0.7,0-1.2,0.1c0.3-0.5,0.6-1,0.9-1.6
		l2.1-3.6c0.3-0.5,0.8-1.4,1.4-2.5l6.6-11.1c0.5,0.1,0.9,0.1,1.1,0.1C95.9,123.9,96.3,123.9,96.9,123.8z M98.4,136.6
		c0,0-0.1,0.1-0.2,0.3l-0.8,1.1c-2.3,3.1-4,4.7-5.2,4.7c-0.5,0-1-0.2-1.4-0.5s-0.6-0.7-0.6-1.2c0-0.4,0.3-1.2,1-2.6l0-0.1
		c0.2-0.4,0.3-0.8,0.3-1c0-0.3-0.2-0.5-0.6-0.7c-0.5,0.2-0.8,0.3-1.1,0.3c-0.4,0-0.6-0.1-0.6-0.4c0-0.2,0.2-0.3,0.6-0.3
		c0.4,0,0.7,0.1,1.1,0.2c0.6-0.3,1.6-1.2,2.9-2.7c0.7-0.8,1.4-1.2,2.2-1.2c0.9,0,1.4,0.4,1.4,1.3c0,0.6-0.2,1.2-0.7,1.7
		c-0.5,0.6-0.9,0.9-1.4,0.9c-0.5,0-0.8-0.2-0.8-0.7c0-0.4,0.4-0.9,1.2-1.4c0.3-0.2,0.5-0.5,0.5-0.9c0-0.3-0.2-0.4-0.6-0.4
		c-0.5,0-1.2,0.5-2,1.4c-1,1.1-1.8,1.9-2.4,2.1c1.3,0.6,1.9,1.2,1.9,2c0,0.4-0.3,1.2-0.9,2.4c-0.3,0.5-0.4,0.9-0.4,1
		c0,0.3,0.2,0.5,0.6,0.5c1.1,0,3-1.9,5.5-5.7c0.1-0.1,0.2-0.2,0.2-0.2C98.4,136.5,98.4,136.5,98.4,136.6z"/>
	<path class="st1" d="M112.9,136.6c0,0.3-0.9,1.4-2.6,3.5c-1.4,1.7-2.6,2.6-3.4,2.6c-0.5,0-1-0.2-1.4-0.6c-0.4-0.4-0.6-0.9-0.6-1.6
		c0-0.5,0.1-1,0.3-1.5c0.2-0.5,0.8-1.4,1.7-2.8c1-1.4,1.5-2.4,1.5-2.8c0-0.5-0.3-0.7-0.8-0.7c-1.8,0-4.5,3.3-8.1,9.8
		c-0.6,0-0.9-0.1-1.1-0.1c-0.4,0-0.8,0-1.2,0.1l2.8-4.5c1.6-2.6,2.4-4.1,2.4-4.8c0-0.4-0.2-0.5-0.5-0.5c-0.6,0-1.8,1.3-3.6,3.9
		c-0.1,0.2-0.2,0.2-0.3,0.3c-0.1,0-0.1,0-0.1-0.1c0-0.1,0-0.1,0.1-0.1l0.3-0.5c1.8-2.5,3.1-3.7,3.7-3.7c0.4,0,0.8,0.2,1.1,0.6
		c0.3,0.4,0.4,0.8,0.4,1.3c0,0.8-0.5,1.8-1.4,3.2c1.4-2,2.5-3.3,3.3-4s1.5-1.1,2.1-1.1c0.5,0,1,0.2,1.3,0.7s0.5,1,0.5,1.6
		c0,0.8-0.6,2-1.7,3.7c-1.1,1.7-1.7,2.8-1.7,3.3c0,0.5,0.2,0.7,0.7,0.7c1.1,0,2.9-1.9,5.6-5.7c0.1-0.1,0.1-0.2,0.2-0.2
		C112.8,136.5,112.9,136.5,112.9,136.6z"/>
	<path class="st1" d="M124.4,136.6c0,0.3-0.9,1.4-2.6,3.5c-1.4,1.7-2.6,2.6-3.4,2.6c-0.5,0-1-0.2-1.3-0.6c-0.4-0.4-0.6-0.9-0.6-1.5
		c0-0.5,0.2-1.1,0.7-2l-0.4,0.5c-1.1,1.4-1.9,2.4-2.4,2.9c-0.6,0.5-1.1,0.8-1.6,0.8c-0.5,0-1-0.2-1.3-0.6c-0.4-0.4-0.5-0.9-0.5-1.5
		c0-0.7,0.3-1.5,0.8-2.4l3.3-5.5c0.4,0.1,0.7,0.1,1,0.1s0.6,0,1.2-0.1l-4.3,7.1c-0.4,0.7-0.7,1.4-0.7,1.9c0,0.5,0.2,0.8,0.7,0.8
		c1.2,0,3.2-2.3,5.9-6.8l1.8-3c0.4,0.1,0.7,0.1,0.9,0.1c0.3,0,0.7,0,1.3-0.1l-2.9,4.7c-1.4,2.2-2.1,3.7-2.1,4.3
		c0,0.5,0.2,0.8,0.7,0.8c1,0,2.5-1.5,4.7-4.6l0.6-0.8l0.3-0.4c0.1-0.1,0.1-0.2,0.2-0.2C124.4,136.5,124.4,136.5,124.4,136.6z"/>
	<path class="st1" d="M140.8,124c-4.5,7.2-7.4,11.8-8.5,13.8c-1.2,2-1.8,3.3-1.8,3.8c0,0.5,0.2,0.8,0.7,0.8c1.1,0,3-1.9,5.6-5.7
		c0.1-0.1,0.1-0.2,0.2-0.2c0.1,0,0.1,0,0.1,0.1c0,0-0.1,0.1-0.2,0.3l-0.8,1.1c-2.3,3.1-4,4.7-5,4.7c-0.6,0-1-0.2-1.4-0.6
		c-0.4-0.4-0.5-0.9-0.5-1.6s0.2-1.4,0.7-2.3c-2.1,3-3.7,4.5-4.7,4.5c-0.6,0-1.2-0.3-1.6-0.8s-0.7-1.2-0.7-2.1c0-2,1.2-3.8,3.7-5.4
		c2-1.3,3.5-1.9,4.6-1.9c0.7,0,1.1,0.4,1.1,1.1c0,0.3-0.1,0.7-0.3,1.1l6.5-10.8c0.4,0.1,0.8,0.2,1.2,0.2
		C139.8,124,140.2,124,140.8,124z M132.1,133.7c0-0.6-0.3-1-0.9-1c-1.1,0-2.5,1.1-4.3,3.2c-1.8,2.2-2.7,3.9-2.7,5.2
		c0,0.8,0.3,1.2,1,1.2c1,0,2.6-1.7,5-5C131.5,135.6,132.1,134.3,132.1,133.7z"/>
	<path class="st1" d="M146.3,136.6c0,0-0.1,0.2-0.3,0.5l-0.8,1c-2.5,3.1-4.6,4.6-6.4,4.6c-0.8,0-1.6-0.3-2.1-0.9
		c-0.6-0.6-0.9-1.4-0.9-2.3c0-2.2,1.5-4.1,4.5-5.7c1.6-0.9,2.9-1.3,3.9-1.3c0.4,0,0.8,0.1,1.1,0.4c0.3,0.3,0.5,0.6,0.5,0.9
		c0,0.9-0.6,1.6-1.7,2.2s-3,1.2-5.7,1.7c-0.8,1.2-1.2,2.3-1.2,3.1c0,1,0.6,1.6,1.7,1.6c1.9,0,4.2-1.9,7-5.6c0.1-0.2,0.3-0.3,0.4-0.3
		C146.3,136.5,146.3,136.5,146.3,136.6z M144.8,133.2c0-0.4-0.2-0.6-0.6-0.6c-0.6,0-1.5,0.4-2.5,1.3c-1,0.9-2.1,2-3.1,3.4
		c1.7-0.4,3.2-1.1,4.4-1.9C144.2,134.7,144.8,134,144.8,133.2z"/>
	<path class="st1" d="M160.8,136.6c0,0.3-0.9,1.4-2.6,3.5c-1.4,1.7-2.6,2.6-3.4,2.6c-0.5,0-1-0.2-1.4-0.6c-0.4-0.4-0.6-0.9-0.6-1.6
		c0-0.5,0.1-1,0.3-1.5c0.2-0.5,0.8-1.4,1.7-2.8c1-1.4,1.5-2.4,1.5-2.8c0-0.5-0.3-0.7-0.8-0.7c-1.8,0-4.5,3.3-8.1,9.8
		c-0.6,0-0.9-0.1-1.1-0.1c-0.4,0-0.8,0-1.2,0.1l2.8-4.5c1.6-2.6,2.4-4.1,2.4-4.8c0-0.4-0.2-0.5-0.5-0.5c-0.6,0-1.8,1.3-3.6,3.9
		c-0.1,0.2-0.2,0.2-0.3,0.3c-0.1,0-0.1,0-0.1-0.1c0-0.1,0-0.1,0.1-0.1l0.3-0.5c1.8-2.5,3.1-3.7,3.7-3.7c0.4,0,0.8,0.2,1,0.6
		c0.3,0.4,0.4,0.8,0.4,1.3c0,0.8-0.5,1.8-1.4,3.2c1.4-2,2.5-3.3,3.3-4c0.8-0.7,1.5-1.1,2.1-1.1c0.5,0,1,0.2,1.3,0.7s0.5,1,0.5,1.6
		c0,0.8-0.6,2-1.7,3.7c-1.1,1.7-1.7,2.8-1.7,3.3c0,0.5,0.2,0.7,0.7,0.7c1.1,0,2.9-1.9,5.6-5.7c0.1-0.1,0.1-0.2,0.2-0.2
		C160.7,136.5,160.8,136.5,160.8,136.6z"/>
</g>
</svg>
