<svg id="Lag_1" data-name="Lag 1" xmlns="http://www.w3.org/2000/svg" viewBox="0 0 329.51 192.39"><defs><style>.cls-1{fill:#ffb370;}.cls-2{fill:#fff;}.cls-3{fill:#1857ce;}.cls-4{fill:#300505;}.cls-5{fill:#b13740;}.cls-6{fill:#fefefe;}.cls-7{fill:#a8a5a1;}.cls-8{fill:#882a2f;}.cls-9{fill:#e3aca4;}.cls-10{fill:#45507c;}.cls-11{fill:#7b9af2;}.cls-12{fill:#2f66ea;}.cls-13{fill:#010000;}.cls-14{font-size:40px;font-family:Microsoft Yi Baiti;}</style></defs><title>hårknuden</title><path class="cls-1" d="M246.4,131.37a84.8,84.8,0,1,0-150.8,0H246.4Z" transform="translate(-5 -7.77)"/><polygon class="cls-2" points="183.45 73.9 146.95 73.9 144.95 59.3 185.95 59.9 183.45 73.9"/><polygon class="cls-3" points="179.15 90.7 151.15 91 149.15 76.5 181.55 76.8 179.15 90.7"/><g id="layer101"><path class="cls-4" d="M155,107.57a5.28,5.28,0,0,1,2.5,0c0.6,0.3.1,0.5-1.3,0.5S154.25,107.87,155,107.57Z" transform="translate(-5 -7.77)"/><path class="cls-4" d="M183,107.57a5.28,5.28,0,0,1,2.5,0c0.6,0.3.1,0.5-1.3,0.5S182.25,107.87,183,107.57Z" transform="translate(-5 -7.77)"/></g><g id="layer103"><path class="cls-5" d="M93.35,146.57c20.1-.2,133.4-0.2,154,0s-36,1.2-76.7,1.2S73.15,146.67,93.35,146.57Z" transform="translate(-5 -7.77)"/><path class="cls-5" d="M159.75,111.77l-0.6-2.5h-31c-21.5,0-41-.3-41-1.1s19.3-1,41-.7c28.1,0.3,31,.1,31-1.3,0-3.5,2.5-4,6.4-1.4,4.5,3.1,4.8,3.1,9.3,0,3.9-2.6,6.3-2,6.3,1.4,0,1.4,2.9,1.6,30.6,1.3,21-.3,41,0,41.7.7s-17.9,1.1-40.6,1.1c-31.2,0-31.7,0-31.7,2,0,3.2-2.7,3.5-6.9.6l-3.9-2.7-3.7,2.5C162,114.87,160.55,115,159.75,111.77Z" transform="translate(-5 -7.77)"/><path class="cls-5" d="M162.15,58.17A84.69,84.69,0,0,0,149,58c-5,.5-5.8.3-5.8-1.1,0-2.7,4.4-3.7,11.8-2.6a136.94,136.94,0,0,0,32,0c4.8-.8,6.9-0.8,8.9.2,5.6,2.8,3.7,3.6-8.6,3.6a147.58,147.58,0,0,0-14.8.5A57.13,57.13,0,0,1,162.15,58.17Z" transform="translate(-5 -7.77)"/><path class="cls-5" d="M156.45,52.57c-3.9-.5-4.2-3-3.3-10.5,1.2-9.6,5-13.3,17.4-13.3,8.8,0,12.8,1.5,16,5.6,1.3,1.9,2.7,4.2,2.5,10.2-0.3,7-.3,7.1-3.3,7.7C182.35,53.07,161.65,53.17,156.45,52.57Z" transform="translate(-5 -7.77)"/></g><path class="cls-6" d="M243.35,149.47c0-17.1-.4-27.2-0.4-44.3,31,0-22.9,1,8.1,1V148C220.05,148,274.35,149.47,243.35,149.47Zm0.7-38.2a0.7,0.7,0,0,0,.5-0.4,19.87,19.87,0,0,1,2.9-1.6,1.49,1.49,0,0,0,.7-0.3,0.52,0.52,0,0,0,.4-0.2c0.3,0,.4-0.2.7-0.2,0.6,0.1,1.4-.1,1.7.4a3.5,3.5,0,0,1,.3,1.2c0.1-.2.1-0.3,0.2-0.3a1.23,1.23,0,0,0,1-.8,0.77,0.77,0,0,1,.3-0.2,1.24,1.24,0,0,0,.1-2.2,2,2,0,0,1-.8-0.8c-1.7-2.1-6.1-2.2-8.2-1a8,8,0,0,0-2.7,2.4,2.65,2.65,0,0,1-1.7.6,1.09,1.09,0,0,1-1-.2c-0.5-.5-1.2-0.4-2.1-0.4,0.3,14,.2,27.9.2,41.9,1.5,0.2,1.8.1,2.1-.4h0c0.9-.3,2.1-0.2,2.4.3a8,8,0,0,0,1.3,1.3,5.83,5.83,0,0,0,2.8,1.7,8.77,8.77,0,0,0,3.6.2,6.65,6.65,0,0,0,4.8-3.2c0.4-.5-0.7-1.8-2.4-2.3,0-.1,0-0.2-0.3-0.3-0.2.5-1.1,0.9-1.3,1.4h0a0.19,0.19,0,0,0-.3,0c-1.1.1-1.5,0.5-1.1,1.1a0.84,0.84,0,0,1-.7.2c-0.4-.1-0.3-0.3-0.3-0.4a2.2,2.2,0,0,0-.1-0.8c-0.7.1-1.2-.3-1.9-0.2a1.44,1.44,0,0,1-.3-0.2,13.43,13.43,0,0,0,2.4-1.2,4.79,4.79,0,0,0,2.2-1.3,0.69,0.69,0,0,0,.5-0.3,1.7,1.7,0,0,0,.8-1.6,2.08,2.08,0,0,1,.1-1.1,2.84,2.84,0,0,0,0-1.3,20,20,0,0,1-1.6,1.4,1.63,1.63,0,0,0-.6.3,26.81,26.81,0,0,1-3.4,1.6c-1,.4-1.9.9-2,1.6v0.9c-1.2.2-1.2,0.7-.6,1.2a15,15,0,0,0-2.2.2,1.33,1.33,0,0,1-1.4-.3,1.66,1.66,0,0,1-.5-1.3c0.1-11.8.1-23.7,0-35.5a7.72,7.72,0,0,0-.2-1.5c0-.3-0.1-0.5-0.8-0.6a0.62,0.62,0,0,1,.7-0.2,2.08,2.08,0,0,0,1.1.1,6.45,6.45,0,0,1,2,.3c0.2,0.1.4,0.1,0.4,0.3a5.27,5.27,0,0,0,.3,1.2c0,2.3.1,4.6,0.2,7a0.29,0.29,0,0,0,.2.4,0.63,0.63,0,0,0,.4-0.8c0-.9.1-1.8,0.1-2.7a13.43,13.43,0,0,0-.3-3.5,0.6,0.6,0,0,1,.3-0.6l0.2,0.2v0.4a1.1,1.1,0,0,0,0,.8V112a0.35,0.35,0,0,0,.1.5,2.19,2.19,0,0,1,.3-0.5,2.1,2.1,0,0,1,.5-0.7h0Zm-1.5,32.9a0.49,0.49,0,0,0,.4.7c-0.2-.3.4-0.6-0.4-0.7a2.3,2.3,0,0,0,.4-1.4c0.1-.7-0.6-1.4-0.4-2.1a5.63,5.63,0,0,0,0-1.3h-0.2V144A0.28,0.28,0,0,0,242.55,144.17Zm7-33a1.91,1.91,0,0,0-.8.3,32,32,0,0,0-3.7,1.9,2.78,2.78,0,0,0-1.7,2.6v2.1a9,9,0,0,0,1-.9,30.65,30.65,0,0,1,3.6-2,17.91,17.91,0,0,0,2.4-1.2,1.13,1.13,0,0,0,.6-0.6,9.23,9.23,0,0,0-.3-2.8A2,2,0,0,0,249.55,111.17Zm-6.1,9.7a5,5,0,0,0-.1,2.7v0.5c1.4-1.5,3.9-2.4,5.9-3.6a3.91,3.91,0,0,0,1.7-1.2,10.63,10.63,0,0,0,.1-3.1,11.47,11.47,0,0,1-1.4.8c-1,.5-2.1,1-3.2,1.6A7.43,7.43,0,0,0,243.45,120.87Zm7.5,7.5a17.3,17.3,0,0,1-5,2.9,5.69,5.69,0,0,0-2.5,1.9,10.07,10.07,0,0,0-.1,3c0,0.1.2,0,.2-0.1,0.5-.3.8-0.6,1.3-0.9a36.24,36.24,0,0,0,4.8-2.5,2.7,2.7,0,0,0,1.3-1.3,15,15,0,0,0,0-3h0Zm0-6.1c-1.5,1.2-3.6,1.9-5.5,2.8-1,.5-1.9,1.1-2,1.8a16,16,0,0,0,0,3.1,2.18,2.18,0,0,0,.5-0.4,6.71,6.71,0,0,1,1.4-.9,51.59,51.59,0,0,0,4.7-2.4,1.56,1.56,0,0,0,.9-1.1C251,124.17,251,123.27,251,122.27Zm-1.2,16.5c1.9-1.3.9-2.8,1.2-4.1a0.55,0.55,0,0,0-.6.3,8.38,8.38,0,0,1-2.6,1.7c-1.2.6-2.3,1.2-3.5,1.7a1.06,1.06,0,0,0-.8.8c-0.1,1,0,2,0,3.1a8.27,8.27,0,0,1,1.6-.9c1.1-.5,2.1-1,3.2-1.5a0.88,0.88,0,0,0,.7-1,0.49,0.49,0,0,1,.1-0.7A1.69,1.69,0,0,1,249.75,138.77Zm-7.1-20.5v1.5A1.2,1.2,0,0,0,242.65,118.27Z" transform="translate(-5 -7.77)"/><path class="cls-7" d="M243.05,110.07a0.6,0.6,0,0,0-.3.6,13.82,13.82,0,0,1,.3,3.5,24.37,24.37,0,0,0-.1,2.7,0.63,0.63,0,0,1-.4.8,0.29,0.29,0,0,1-.2-0.4c-0.1-2.3-.1-4.6-0.2-7,0-.4-0.3-0.8-0.3-1.2a0.45,0.45,0,0,0-.4-0.3,4.43,4.43,0,0,0-2-.3,3.75,3.75,0,0,1-1.1-.1c-0.4-.2-0.5,0-0.7.2a0.65,0.65,0,0,1,.8.6,7.72,7.72,0,0,1,.2,1.5c0.1,11.8.1,23.7,0,35.5a2,2,0,0,0,.5,1.3,1.33,1.33,0,0,0,1.4.3c0.7-.1,1.4-0.1,2.2-0.2-0.6-.5-0.6-0.9.6-1.2a0.47,0.47,0,0,1-.1.6c-0.1.1-.3,0.2,0.1,0.3a2.19,2.19,0,0,0,1.6.1,0.53,0.53,0,0,0,.3.2c0.7-.1,1.2.3,1.9,0.2,0,0.3.1,0.5,0.1,0.8s-0.1.3,0.3,0.4a0.66,0.66,0,0,0,.7-0.2c-0.5-.5-0.1-0.9,1.1-1.1a0.32,0.32,0,0,0,.3,0h0a1.59,1.59,0,0,0,1.4-.4c0.3-.3,0-0.5.2-0.8,1.7,0.5,2.8,1.7,2.4,2.3a6.86,6.86,0,0,1-4.8,3.2,8.68,8.68,0,0,1-3.6-.2,5.83,5.83,0,0,1-2.8-1.7,8,8,0,0,1-1.3-1.3c-0.3-.5-1.6-0.5-2.4-0.3a1.21,1.21,0,0,1,.3-1c0.1-.1.1-0.3-0.2-0.3a0.48,0.48,0,0,0-.6.2,1.1,1.1,0,0,0,.1,1.1h0.3c-0.3.5-.5,0.6-2.1,0.4,0-13.9.1-27.9-.2-41.9a2.4,2.4,0,0,1,2.1.4,1.09,1.09,0,0,0,1,.2,2.65,2.65,0,0,0,1.7-.6,7.91,7.91,0,0,1,2.7-2.4c2.1-1.2,6.5-1.1,8.2,1a3,3,0,0,0,.8.8,1.24,1.24,0,0,1-.1,2.2c-0.1.1-.2,0.1-0.3,0.2a1.23,1.23,0,0,1-1,.8,0.77,0.77,0,0,0-.2.3,4.22,4.22,0,0,0-.3-1.2c-0.3-.4-1.1-0.3-1.7-0.4-0.3-.6-0.4-0.7-1.3-0.5a0.85,0.85,0,0,1-.5-0.3c-0.7.1-.3,0.3-0.4,0.5v0.1c-0.4-.1-0.7,0-1.1-0.1,0-.1,0-0.3-0.4-0.2a0.4,0.4,0,0,1-.2.4H245a2.7,2.7,0,0,0-.9,0c-0.6.3-.9,0.6-0.8,1S243.45,109.87,243.05,110.07Zm5.4-4.2a2.4,2.4,0,0,0-1.4-.2c-0.7.2,0.1,0.6-.2,0.8a3.21,3.21,0,0,0,1.4-.1A0.65,0.65,0,0,1,248.45,105.87Zm-0.4,44.7c0.2-.3.4-0.6,0-0.8a1.39,1.39,0,0,0-1.1,0C246.85,150.17,246.85,150.67,248.05,150.57Zm-4.6-43.7c0.7,0,.6-0.3.6-0.6C243.15,106.27,243.15,106.57,243.45,106.87Zm5.7,44.9a1.07,1.07,0,0,0,1.1-.5A1.07,1.07,0,0,0,249.15,151.77Zm-5.5-1.8c0.4-.6.4-0.6-0.3-0.6A0.49,0.49,0,0,0,243.65,150Z" transform="translate(-5 -7.77)"/><path class="cls-5" d="M243.35,133.27a4.63,4.63,0,0,1,2.5-1.9,16.06,16.06,0,0,0,5-2.9h0a8.08,8.08,0,0,1,0,3.1,2.7,2.7,0,0,1-1.3,1.3,53.93,53.93,0,0,1-4.8,2.5c-0.5.3-.8,0.6-1.3,0.9A14.54,14.54,0,0,0,243.35,133.27Z" transform="translate(-5 -7.77)"/><path class="cls-3" d="M251,122.27v2.9a1.86,1.86,0,0,1-.9,1.1,51.58,51.58,0,0,1-4.7,2.4,8.51,8.51,0,0,0-1.4.9,2.18,2.18,0,0,1-.5.4c0-1-.1-2.1,0-3.1a3,3,0,0,1,2-1.8A23.69,23.69,0,0,0,251,122.27Z" transform="translate(-5 -7.77)"/><path class="cls-5" d="M243.45,120.87a6,6,0,0,1,3-2.3c1-.5,2.1-1,3.2-1.6,0.4-.2.8-0.5,1.4-0.8a15.82,15.82,0,0,1-.1,3.1c-0.1.5-1,.9-1.7,1.2-2,1.1-4.5,2-5.9,3.6v-0.5A12.21,12.21,0,0,0,243.45,120.87Z" transform="translate(-5 -7.77)"/><path class="cls-3" d="M249.75,138.77c-0.3-.3-0.5-0.6-0.7-0.8-0.4.2-.2,0.5-0.1,0.7a0.84,0.84,0,0,1-.7,1c-1.1.5-2.1,1-3.2,1.5-0.5.3-1,.5-1.6,0.9V139a1.06,1.06,0,0,1,.8-0.8c1.2-.6,2.4-1.2,3.5-1.7a9.75,9.75,0,0,0,2.6-1.7,0.55,0.55,0,0,1,.6-0.3C250.75,136,251.65,137.47,249.75,138.77Z" transform="translate(-5 -7.77)"/><path class="cls-3" d="M249.55,111.17a5.25,5.25,0,0,1,1.1-.7,6.89,6.89,0,0,1,.3,2.8,0.89,0.89,0,0,1-.6.6c-0.7.4-1.6,0.8-2.4,1.2a17.68,17.68,0,0,0-3.6,2,9,9,0,0,1-1,.9v-2.1c-0.1-1,.5-1.8,1.7-2.6a32,32,0,0,1,3.7-1.9,3.89,3.89,0,0,1,.2,1.5c-0.1.5-.1,0.9-0.2,1.4,0.5-.2,1.1-1,0.8-1.3a0.75,0.75,0,0,0-.5-0.1A4.8,4.8,0,0,0,249.55,111.17Z" transform="translate(-5 -7.77)"/><path class="cls-5" d="M243.15,147.27c-0.4-.1-0.2-0.2-0.1-0.3s0.3-.4.1-0.6v-0.9c0.1-.8,1-1.2,2-1.6a26.81,26.81,0,0,0,3.4-1.6c0.3,0.1.1,0.3,0.2,0.5a6,6,0,0,0,.6,2.2,7.52,7.52,0,0,1-2.2,1.3,2.27,2.27,0,0,1-.1-0.4,0.83,0.83,0,0,1-1.1.3c-0.4-.4-1.1-0.2-1.5-0.4-0.4.3,0.1,0.6-.4,0.9-0.3-.3,0-0.5-0.4-0.8C243.55,146.27,243.85,146.87,243.15,147.27Z" transform="translate(-5 -7.77)"/><path class="cls-8" d="M245,108.37h0.4c0.2,0,.4-0.1.6-0.1a3.75,3.75,0,0,1,1.1.1c0.1,0.3.3,0.6,0.4,0.9a19.87,19.87,0,0,0-2.9,1.6c-0.6,0-.5.2-0.5,0.4h0a0.76,0.76,0,0,0-.5.2,0.64,0.64,0,0,1,0-.6,0.25,0.25,0,0,0,.1-0.4C243.45,109.67,244.05,109,245,108.37Z" transform="translate(-5 -7.77)"/><path class="cls-8" d="M243.15,147.27c0.6-.4.3-1,0.6-1.6,0.5,0.3.1,0.6,0.4,0.8,0.5-.3,0-0.6.4-0.9a8.33,8.33,0,0,1,1.5.4,0.85,0.85,0,0,0,1.1-.3,0.76,0.76,0,0,1,.1.4c-0.7.5-1.7,0.8-2.4,1.2A1.72,1.72,0,0,1,243.15,147.27Z" transform="translate(-5 -7.77)"/><path class="cls-5" d="M249.25,142a10,10,0,0,0,1.6-1.4,2.84,2.84,0,0,1,0,1.3,4.1,4.1,0,0,0-.1,1.1,1.53,1.53,0,0,1-.8,1.6,0.51,0.51,0,0,1-.1-0.5A4.2,4.2,0,0,0,249.25,142Z" transform="translate(-5 -7.77)"/><path class="cls-9" d="M249.25,142a4.2,4.2,0,0,1,.6,2.1c0,0.2-.1.4,0.1,0.5,0,0.2-.2.3-0.5,0.3a6,6,0,0,1-.6-2.2,0.39,0.39,0,0,0-.2-0.5A3.93,3.93,0,0,0,249.25,142Z" transform="translate(-5 -7.77)"/><path class="cls-7" d="M242.55,144.17a0.16,0.16,0,0,1-.2-0.2v-4.6h0.2a5.65,5.65,0,0,1,0,1.3c-0.2.7,0.5,1.4,0.4,2.1a2.73,2.73,0,0,1-.4,1.4h0Z" transform="translate(-5 -7.77)"/><path class="cls-5" d="M245,108.37c-0.9.6-1.5,1.2-1.3,2a0.33,0.33,0,0,1-.1.4,0.16,0.16,0,0,0-.2-0.2v-0.2c0.2-.1.2-0.1,0-0.2l-0.2-.2c0.4-.2.2-0.4,0.2-0.6-0.1-.4.2-0.7,0.8-1A2.15,2.15,0,0,1,245,108.37Z" transform="translate(-5 -7.77)"/><path class="cls-5" d="M247.45,109.17c-0.1-.3-0.3-0.6-0.4-0.9v-0.1c0.4,0.1.9,0.2,0.9-.2,0.9-.2,1-0.1,1.3.5a1.45,1.45,0,0,1-.7.2c-0.1-.1,0-0.4-0.5-0.3-0.1.2-.2,0.3,0.1,0.5A0.91,0.91,0,0,1,247.45,109.17Z" transform="translate(-5 -7.77)"/><path class="cls-10" d="M251.05,146.67c-0.2.2,0.1,0.5-.2,0.8a1.59,1.59,0,0,1-1.4.4c0.2-.5,1.1-0.9,1.3-1.4A0.25,0.25,0,0,1,251.05,146.67Z" transform="translate(-5 -7.77)"/><path class="cls-11" d="M248.85,112.87a3.89,3.89,0,0,0-.2-1.5,1.91,1.91,0,0,1,.8-0.3,4.07,4.07,0,0,1-.5,1.8h-0.1Z" transform="translate(-5 -7.77)"/><path class="cls-9" d="M243.35,133.27a28.1,28.1,0,0,1,.1,2.9c0,0.1-.2.1-0.2,0.1A10.07,10.07,0,0,1,243.35,133.27Z" transform="translate(-5 -7.77)"/><path class="cls-7" d="M242.65,118.27a1,1,0,0,1,0,1.5v-1.5Z" transform="translate(-5 -7.77)"/><path class="cls-9" d="M243.45,120.87a8.17,8.17,0,0,1-.1,2.7A5,5,0,0,1,243.45,120.87Z" transform="translate(-5 -7.77)"/><path class="cls-8" d="M248.15,109c-0.3-.2-0.2-0.3-0.1-0.5,0.6-.1.5,0.2,0.5,0.3S248.25,108.87,248.15,109Z" transform="translate(-5 -7.77)"/><path class="cls-5" d="M243.55,111.47a0.59,0.59,0,0,1,.5-0.2,1.76,1.76,0,0,1-.4.5h-0.3v-0.3h0.2Z" transform="translate(-5 -7.77)"/><path class="cls-7" d="M242.55,144.17c0.8,0.1.2,0.4,0.4,0.7-0.6-.3-0.4-0.5-0.4-0.7h0Z" transform="translate(-5 -7.77)"/><path class="cls-7" d="M243.55,111.47h-0.2a1.1,1.1,0,0,1,0-.8c0.2,0,.1.1,0.2,0.2A0.64,0.64,0,0,0,243.55,111.47Z" transform="translate(-5 -7.77)"/><path class="cls-5" d="M244.05,111.27c0-.2-0.1-0.4.5-0.4A2.18,2.18,0,0,1,244.05,111.27Z" transform="translate(-5 -7.77)"/><path class="cls-7" d="M243.35,111.77h0.3c-0.1.2-.2,0.3-0.3,0.5A0.33,0.33,0,0,1,243.35,111.77Z" transform="translate(-5 -7.77)"/><path class="cls-7" d="M243.25,110.27c0.2,0.1.2,0.1,0,.2v-0.2Z" transform="translate(-5 -7.77)"/><polygon class="cls-5" points="245.95 120.6 245.95 120.6 245.85 120.6 245.95 120.6"/><path class="cls-10" d="M249.45,147.77a0.32,0.32,0,0,1-.3,0h0.3Z" transform="translate(-5 -7.77)"/><path class="cls-6" d="M248.45,105.87a0.86,0.86,0,0,0-.3.6,5.72,5.72,0,0,1-1.4.1c0.4-.3-0.4-0.6.2-0.8A2,2,0,0,1,248.45,105.87Z" transform="translate(-5 -7.77)"/><path class="cls-6" d="M248.05,150.57c-1.3,0-1.2-.4-1.1-0.9a1.38,1.38,0,0,1,1.1,0C248.45,150,248.25,150.27,248.05,150.57Z" transform="translate(-5 -7.77)"/><path class="cls-6" d="M238.45,148.67h-0.3a1.1,1.1,0,0,1-.1-1.1,0.85,0.85,0,0,1,.6-0.2c0.3,0.1.3,0.2,0.2,0.3a1,1,0,0,0-.4,1h0Z" transform="translate(-5 -7.77)"/><path class="cls-6" d="M248,108c0,0.4-.5.3-0.9,0.2,0.1-.2-0.3-0.4.4-0.5A0.62,0.62,0,0,0,248,108Z" transform="translate(-5 -7.77)"/><path class="cls-6" d="M243.45,106.87c-0.2-.3-0.2-0.5.6-0.6C244.05,106.57,244.15,106.77,243.45,106.87Z" transform="translate(-5 -7.77)"/><path class="cls-6" d="M249.15,151.77a1.07,1.07,0,0,1,1.1-.5A1.29,1.29,0,0,1,249.15,151.77Z" transform="translate(-5 -7.77)"/><path class="cls-6" d="M243.65,150a0.6,0.6,0,0,1-.3-0.6C244,149.47,244,149.47,243.65,150Z" transform="translate(-5 -7.77)"/><path class="cls-5" d="M245.85,108.27a1.08,1.08,0,0,1-.6.1,0.34,0.34,0,0,0,.2-0.4C246,108,245.85,108.17,245.85,108.27Z" transform="translate(-5 -7.77)"/><path class="cls-12" d="M248.85,112.87H249a0.75,0.75,0,0,1,.5.1c0.3,0.2-.3,1.1-0.8,1.3A6.75,6.75,0,0,0,248.85,112.87Z" transform="translate(-5 -7.77)"/><path class="cls-6" d="M90,147.17v-41.8c31,0-22.9-1,8.1-1,0,17.1-.4,27.2-0.4,44.3C66.65,148.67,121.05,147.17,90,147.17Zm7.1-36.7a1.76,1.76,0,0,0,.4.5c0.1,0.2.2,0.3,0.3,0.5a0.36,0.36,0,0,0,.1-0.5v-0.3a1.1,1.1,0,0,0,0-.8v-0.4l0.2-.2a0.6,0.6,0,0,1,.3.6,13.82,13.82,0,0,0-.3,3.5,24.37,24.37,0,0,1,.1,2.7,0.63,0.63,0,0,0,.4.8,0.29,0.29,0,0,0,.2-0.4c0.1-2.3.1-4.6,0.2-7,0-.4.3-0.8,0.3-1.2a0.45,0.45,0,0,1,.4-0.3,4.43,4.43,0,0,1,2-.3,3.75,3.75,0,0,0,1.1-.1c0.4-.2.5,0,0.7,0.2a0.65,0.65,0,0,0-.8.6,7.72,7.72,0,0,0-.2,1.5c-0.1,11.8-.1,23.7,0,35.5a2,2,0,0,1-.5,1.3,1.33,1.33,0,0,1-1.4.3c-0.7-.1-1.4-0.1-2.2-0.2,0.6-.5.6-0.9-0.6-1.2v-0.9c-0.1-.8-1-1.2-2-1.6a26.81,26.81,0,0,1-3.4-1.6,1.63,1.63,0,0,0-.6-0.3,10,10,0,0,1-1.6-1.4,2.85,2.85,0,0,0,0,1.3,4.1,4.1,0,0,1,.1,1.1,1.53,1.53,0,0,0,.8,1.6c0,0.2.2,0.3,0.5,0.3a7.52,7.52,0,0,0,2.2,1.3c0.7,0.5,1.7.8,2.4,1.2a0.53,0.53,0,0,1-.3.2c-0.7-.1-1.2.3-1.9,0.2,0,0.3-.1.5-0.1,0.8s0.1,0.3-.3.4a0.66,0.66,0,0,1-.7-0.2c0.5-.5.1-0.9-1.1-1.1a0.19,0.19,0,0,0-.3,0h0c-0.2-.5-1.1-0.9-1.3-1.4-0.3.1-.3,0.2-0.3,0.3-1.7.5-2.8,1.7-2.4,2.3a6.86,6.86,0,0,0,4.8,3.2,8.68,8.68,0,0,0,3.6-.2,5.83,5.83,0,0,0,2.8-1.7,8,8,0,0,0,1.3-1.3c0.3-.5,1.6-0.5,2.4-0.3h0c0.3,0.5.5,0.6,2.1,0.4,0-13.9-.1-27.9.2-41.9a2.4,2.4,0,0,0-2.1.4,1.09,1.09,0,0,1-1,.2,2.65,2.65,0,0,1-1.7-.6,7.91,7.91,0,0,0-2.7-2.4c-2.1-1.2-6.5-1.1-8.2,1a3,3,0,0,1-.8.8,1.24,1.24,0,0,0,.1,2.2c0.1,0.1.2,0.1,0.3,0.2a1.23,1.23,0,0,0,1,.8,0.77,0.77,0,0,1,.2.3,4.22,4.22,0,0,1,.3-1.2c0.3-.4,1.1-0.3,1.7-0.4a1.45,1.45,0,0,0,.7.2,0.76,0.76,0,0,0,.4.2,4.88,4.88,0,0,0,.7.3,19.87,19.87,0,0,1,2.9,1.6,1.17,1.17,0,0,0,.6.6h0Zm1.7,32.6v-4.6h-0.2a5.65,5.65,0,0,0,0,1.3c0.2,0.7-.5,1.4-0.4,2.1a3.26,3.26,0,0,0,.4,1.4c-0.8.1-.2,0.4-0.4,0.7a0.49,0.49,0,0,0,.4-0.7A0.22,0.22,0,0,0,98.75,143.07Zm-8.3-33.4a6.89,6.89,0,0,0-.3,2.8,0.89,0.89,0,0,0,.6.6c0.7,0.4,1.6.8,2.4,1.2a17.68,17.68,0,0,1,3.6,2,9,9,0,0,0,1,.9v-2.1c0.1-1-.5-1.8-1.7-2.6a32,32,0,0,0-3.7-1.9,1.91,1.91,0,0,0-.8-0.3A5.42,5.42,0,0,0,90.45,109.67Zm4.2,8.1c-1-.5-2.1-1-3.2-1.6-0.4-.2-0.8-0.5-1.4-0.8a15.82,15.82,0,0,0,.1,3.1c0.1,0.5,1,.9,1.7,1.2,2,1.1,4.5,2,5.9,3.6v-0.5a5,5,0,0,0-.1-2.7A7.43,7.43,0,0,0,94.65,117.77Zm-4.5,9.8h0a10.73,10.73,0,0,0,0,3.1,2.7,2.7,0,0,0,1.3,1.3,53.94,53.94,0,0,0,4.8,2.5c0.5,0.3.8,0.6,1.3,0.9,0,0.1.2,0.1,0.2,0.1a10.07,10.07,0,0,0-.1-3,4.63,4.63,0,0,0-2.5-1.9,20.09,20.09,0,0,1-5-3h0Zm-0.1-3.2a1.86,1.86,0,0,0,.9,1.1,51.58,51.58,0,0,0,4.7,2.4,8.51,8.51,0,0,1,1.4.9,2.18,2.18,0,0,0,.5.4c0-1,.1-2.1,0-3.1a3,3,0,0,0-2-1.8c-1.9-.9-4-1.6-5.5-2.8v2.9Zm1.9,12.8c0.4,0.2.2,0.5,0.1,0.7a0.84,0.84,0,0,0,.7,1c1.1,0.5,2.1,1,3.2,1.5,0.5,0.3,1,.5,1.6.9v-3.1a1.06,1.06,0,0,0-.8-0.8c-1.2-.6-2.4-1.2-3.5-1.7a9.75,9.75,0,0,1-2.6-1.7,0.55,0.55,0,0,0-.6-0.3c0.3,1.4-.7,2.8,1.2,4.1A2,2,0,0,0,92,137.17Zm6.5-18.2v-1.5A1,1,0,0,0,98.45,119Z" transform="translate(-5 -7.77)"/><path class="cls-7" d="M97.85,108.67c0.1-.4-0.2-0.7-0.8-1a2.7,2.7,0,0,0-.9,0h-0.4a0.34,0.34,0,0,1-.2-0.4c-0.4,0-.3.1-0.4,0.2a3.75,3.75,0,0,0-1.1.1v-0.1c-0.1-.2.3-0.4-0.4-0.5a2.19,2.19,0,0,1-.5.3c-0.9-.2-1-0.1-1.3.5-0.6.1-1.4-.1-1.7,0.4a3.5,3.5,0,0,0-.3,1.2c-0.1-.2-0.1-0.3-0.2-0.3a1.23,1.23,0,0,1-1-.8,0.77,0.77,0,0,0-.3-0.2,1.24,1.24,0,0,1-.1-2.2,2,2,0,0,0,.8-0.8c1.7-2.1,6.1-2.2,8.2-1a8,8,0,0,1,2.7,2.4,2.65,2.65,0,0,0,1.7.6,1.09,1.09,0,0,0,1-.2c0.5-.5,1.2-0.4,2.1-0.4-0.3,14-.2,27.9-0.2,41.9-1.5.2-1.8,0.1-2.1-.4h0.3a1.1,1.1,0,0,0,.1-1.1,0.85,0.85,0,0,0-.6-0.2c-0.3.1-.3,0.2-0.2,0.3a1,1,0,0,1,.3,1c-0.9-.3-2.1-0.2-2.4.3a8,8,0,0,1-1.3,1.3,5.83,5.83,0,0,1-2.8,1.7,8.77,8.77,0,0,1-3.6.2,6.65,6.65,0,0,1-4.8-3.2c-0.4-.5.7-1.8,2.4-2.3,0.2,0.2-.1.5,0.2,0.8a1.59,1.59,0,0,0,1.4.4h0a0.32,0.32,0,0,0,.3,0c1.1,0.1,1.5.5,1.1,1.1a0.84,0.84,0,0,0,.7.2c0.4-.1.3-0.3,0.3-0.4a2.2,2.2,0,0,1,.1-0.8c0.7,0.1,1.2-.3,1.9-0.2a1.44,1.44,0,0,0,.3-0.2,2.19,2.19,0,0,0,1.6-.1c0.4-.1.2-0.2,0.1-0.3s-0.3-.4-0.1-0.6c1.2,0.2,1.2.7,0.6,1.2a15,15,0,0,1,2.2.2,1.33,1.33,0,0,0,1.4-.3,1.66,1.66,0,0,0,.5-1.3c-0.1-11.8-.1-23.7,0-35.5a7.72,7.72,0,0,1,.2-1.5c0-.3.1-0.5,0.8-0.6a0.62,0.62,0,0,0-.7-0.2,2.08,2.08,0,0,1-1.1.1,6.45,6.45,0,0,0-2,.3c-0.2.1-.4,0.1-0.4,0.3a5.27,5.27,0,0,1-.3,1.2c0,2.3-.1,4.6-0.2,7a0.29,0.29,0,0,1-.2.4,0.63,0.63,0,0,1-.4-0.8c0-.9-0.1-1.8-0.1-2.7a13.43,13.43,0,0,1,.3-3.5,0.6,0.6,0,0,0-.3-0.6A0.69,0.69,0,0,1,97.85,108.67Zm-4.9-3a5.72,5.72,0,0,0,1.4.1c-0.4-.3.4-0.6-0.2-0.8a1.44,1.44,0,0,0-1.4.2A2.57,2.57,0,0,1,93,105.67Zm1.1,43.3a1.38,1.38,0,0,0-1.1,0c-0.4.2-.1,0.5,0,0.8C94.25,149.87,94.15,149.37,94.05,149Zm3.1-43.5c-0.1.3-.2,0.5,0.6,0.6C97.85,105.77,97.85,105.47,97.15,105.47Zm-6.4,45a1.29,1.29,0,0,0,1.1.5C91.65,150.57,91.65,150.57,90.75,150.47Zm7-1.8c-0.6,0-.6,0-0.3.6A0.6,0.6,0,0,0,97.75,148.67Z" transform="translate(-5 -7.77)"/><path class="cls-5" d="M97.65,132.47a4.63,4.63,0,0,0-2.5-1.9,16.06,16.06,0,0,1-5-2.9h0a8.08,8.08,0,0,0,0,3.1,2.7,2.7,0,0,0,1.3,1.3,53.94,53.94,0,0,0,4.8,2.5c0.5,0.3.8,0.6,1.3,0.9A28.12,28.12,0,0,1,97.65,132.47Z" transform="translate(-5 -7.77)"/><path class="cls-3" d="M90.05,121.47v2.9a1.86,1.86,0,0,0,.9,1.1,51.58,51.58,0,0,0,4.7,2.4,8.51,8.51,0,0,1,1.4.9,2.18,2.18,0,0,0,.5.4c0-1,.1-2.1,0-3.1a3,3,0,0,0-2-1.8A23.69,23.69,0,0,1,90.05,121.47Z" transform="translate(-5 -7.77)"/><path class="cls-5" d="M97.65,120.07a6,6,0,0,0-3-2.3c-1-.5-2.1-1-3.2-1.6-0.4-.2-0.8-0.5-1.4-0.8a15.82,15.82,0,0,0,.1,3.1c0.1,0.5,1,.9,1.7,1.2,2,1.1,4.5,2,5.9,3.6v-0.5A8.17,8.17,0,0,1,97.65,120.07Z" transform="translate(-5 -7.77)"/><path class="cls-3" d="M91.25,138c0.3-.3.5-0.6,0.7-0.8,0.4,0.2.2,0.5,0.1,0.7a0.84,0.84,0,0,0,.7,1c1.1,0.5,2.1,1,3.2,1.5,0.5,0.3,1,.5,1.6.9v-3.1a1.06,1.06,0,0,0-.8-0.8c-1.2-.6-2.4-1.2-3.5-1.7a9.75,9.75,0,0,1-2.6-1.7,0.55,0.55,0,0,0-.6-0.3C90.35,135.17,89.35,136.67,91.25,138Z" transform="translate(-5 -7.77)"/><path class="cls-3" d="M91.55,110.37a5.25,5.25,0,0,0-1.1-.7,6.89,6.89,0,0,0-.3,2.8,0.89,0.89,0,0,0,.6.6c0.7,0.4,1.6.8,2.4,1.2a17.68,17.68,0,0,1,3.6,2,9,9,0,0,0,1,.9v-2.1c0.1-1-.5-1.8-1.7-2.6a32,32,0,0,0-3.7-1.9,3.89,3.89,0,0,0-.2,1.5c0.1,0.5.1,0.9,0.2,1.4-0.5-.2-1.1-1-0.8-1.3a0.75,0.75,0,0,1,.5-0.1A3.37,3.37,0,0,1,91.55,110.37Z" transform="translate(-5 -7.77)"/><path class="cls-5" d="M97.85,146.47c0.4-.1.2-0.2,0.1-0.3s-0.3-.4-0.1-0.6v-0.9c-0.1-.8-1-1.2-2-1.6a26.81,26.81,0,0,1-3.4-1.6c-0.3.1-.1,0.3-0.2,0.5a6,6,0,0,1-.6,2.2,7.52,7.52,0,0,0,2.2,1.3,2.27,2.27,0,0,0,.1-0.4,0.83,0.83,0,0,0,1.1.3c0.4-.4,1.1-0.2,1.5-0.4,0.4,0.3-.1.6,0.4,0.9,0.3-.3,0-0.5.4-0.8C97.55,145.47,97.25,146.07,97.85,146.47Z" transform="translate(-5 -7.77)"/><path class="cls-8" d="M96.15,107.57h-0.4c-0.2,0-.4-0.1-0.6-0.1a3.75,3.75,0,0,0-1.1.1c-0.1.3-.3,0.6-0.4,0.9a19.87,19.87,0,0,1,2.9,1.6c0.6,0,.5.2,0.5,0.4h0a0.76,0.76,0,0,1,.5.2,0.64,0.64,0,0,0,0-.6,0.25,0.25,0,0,1-.1-0.4A2.29,2.29,0,0,0,96.15,107.57Z" transform="translate(-5 -7.77)"/><path class="cls-8" d="M97.85,146.47c-0.6-.4-0.3-1-0.6-1.6-0.5.3-.1,0.6-0.4,0.8-0.5-.3,0-0.6-0.4-0.9a8.33,8.33,0,0,0-1.5.4,0.85,0.85,0,0,1-1.1-.3,0.76,0.76,0,0,0-.1.4c0.7,0.5,1.7.8,2.4,1.2A1.71,1.71,0,0,0,97.85,146.47Z" transform="translate(-5 -7.77)"/><path class="cls-5" d="M91.85,141.17a10,10,0,0,1-1.6-1.4,2.85,2.85,0,0,0,0,1.3,4.1,4.1,0,0,1,.1,1.1,1.53,1.53,0,0,0,.8,1.6,0.51,0.51,0,0,0,.1-0.5A4.2,4.2,0,0,1,91.85,141.17Z" transform="translate(-5 -7.77)"/><path class="cls-9" d="M91.85,141.17a4.2,4.2,0,0,0-.6,2.1c0,0.2.1,0.4-.1,0.5,0,0.2.2,0.3,0.5,0.3a6,6,0,0,0,.6-2.2,0.39,0.39,0,0,1,.2-0.5A1.42,1.42,0,0,1,91.85,141.17Z" transform="translate(-5 -7.77)"/><path class="cls-7" d="M98.55,143.27a0.16,0.16,0,0,0,.2-0.2v-4.6h-0.2a5.65,5.65,0,0,0,0,1.3c0.2,0.7-.5,1.4-0.4,2.1a2.3,2.3,0,0,0,.4,1.4h0Z" transform="translate(-5 -7.77)"/><path class="cls-5" d="M96.15,107.57c0.9,0.6,1.5,1.2,1.3,2a0.33,0.33,0,0,0,.1.4,0.16,0.16,0,0,1,.2-0.2v-0.2c-0.2-.1-0.2-0.1,0-0.2l0.2-.2c-0.4-.2-0.2-0.4-0.2-0.6,0.1-.4-0.2-0.7-0.8-1A2.15,2.15,0,0,0,96.15,107.57Z" transform="translate(-5 -7.77)"/><path class="cls-5" d="M93.65,108.37c0.1-.3.3-0.6,0.4-0.9v-0.1c-0.4.1-.9,0.2-0.9-0.2-0.9-.2-1-0.1-1.3.5a1.45,1.45,0,0,0,.7.2c0.1-.1,0-0.4.5-0.3,0.1,0.2.2,0.3-.1,0.5A0.91,0.91,0,0,0,93.65,108.37Z" transform="translate(-5 -7.77)"/><path class="cls-10" d="M90.05,145.87c0.2,0.2-.1.5,0.2,0.8a1.59,1.59,0,0,0,1.4.4c-0.2-.5-1.1-0.9-1.3-1.4C90.05,145.67,90.05,145.77,90.05,145.87Z" transform="translate(-5 -7.77)"/><path class="cls-11" d="M92.15,112.07a3.89,3.89,0,0,1,.2-1.5,1.91,1.91,0,0,0-.8-0.3,4.07,4.07,0,0,0,.5,1.8h0.1Z" transform="translate(-5 -7.77)"/><path class="cls-9" d="M97.65,132.47a28.1,28.1,0,0,0-.1,2.9c0,0.1.2,0.1,0.2,0.1A10.07,10.07,0,0,0,97.65,132.47Z" transform="translate(-5 -7.77)"/><path class="cls-7" d="M98.45,117.47a1,1,0,0,0,0,1.5v-1.5Z" transform="translate(-5 -7.77)"/><path class="cls-9" d="M97.65,120.07a8.17,8.17,0,0,0,.1,2.7A6.16,6.16,0,0,0,97.65,120.07Z" transform="translate(-5 -7.77)"/><path class="cls-8" d="M93,108.07c0.3-.2.2-0.3,0.1-0.5-0.6-.1-0.5.2-0.5,0.3A0.34,0.34,0,0,0,93,108.07Z" transform="translate(-5 -7.77)"/><path class="cls-5" d="M97.55,110.67a0.59,0.59,0,0,0-.5-0.2,1.76,1.76,0,0,0,.4.5h0.3v-0.3h-0.2Z" transform="translate(-5 -7.77)"/><path class="cls-7" d="M98.55,143.37c-0.8.1-.2,0.4-0.4,0.7,0.6-.3.3-0.5,0.4-0.7h0Z" transform="translate(-5 -7.77)"/><path class="cls-7" d="M97.55,110.67h0.2a1.1,1.1,0,0,0,0-.8c-0.2,0-.1.1-0.2,0.2A0.64,0.64,0,0,1,97.55,110.67Z" transform="translate(-5 -7.77)"/><path class="cls-5" d="M97.05,110.47c0-.2.1-0.4-0.5-0.4A1.08,1.08,0,0,0,97.05,110.47Z" transform="translate(-5 -7.77)"/><path class="cls-7" d="M97.75,111h-0.3c0.1,0.2.2,0.3,0.3,0.5A0.45,0.45,0,0,0,97.75,111Z" transform="translate(-5 -7.77)"/><path class="cls-7" d="M97.75,109.47c-0.2.1-.2,0.1,0,0.2v-0.2Z" transform="translate(-5 -7.77)"/><path class="cls-5" d="M90.15,127.57h0Z" transform="translate(-5 -7.77)"/><path class="cls-10" d="M91.65,147a0.32,0.32,0,0,0,.3,0h-0.3Z" transform="translate(-5 -7.77)"/><path class="cls-6" d="M92.55,105.07a0.86,0.86,0,0,1,.3.6,5.72,5.72,0,0,0,1.4.1c-0.4-.3.4-0.6-0.2-0.8A2,2,0,0,0,92.55,105.07Z" transform="translate(-5 -7.77)"/><path class="cls-6" d="M93,149.77c1.3,0,1.2-.4,1.1-0.9a1.38,1.38,0,0,0-1.1,0C92.55,149.17,92.85,149.47,93,149.77Z" transform="translate(-5 -7.77)"/><path class="cls-6" d="M102.65,147.87H103a1.1,1.1,0,0,0,.1-1.1,0.85,0.85,0,0,0-.6-0.2c-0.3.1-.3,0.2-0.2,0.3a1,1,0,0,1,.4,1h0Z" transform="translate(-5 -7.77)"/><path class="cls-6" d="M93.15,107.17c0,0.4.5,0.3,0.9,0.2-0.1-.2.3-0.4-0.4-0.5A0.85,0.85,0,0,1,93.15,107.17Z" transform="translate(-5 -7.77)"/><path class="cls-6" d="M97.65,106.07c0.2-.3.2-0.5-0.6-0.6C97.05,105.77,97,106,97.65,106.07Z" transform="translate(-5 -7.77)"/><path class="cls-6" d="M92,151a1.07,1.07,0,0,0-1.1-.5A1.07,1.07,0,0,0,92,151Z" transform="translate(-5 -7.77)"/><path class="cls-6" d="M97.45,149.17a0.6,0.6,0,0,0,.3-0.6C97.05,148.67,97.05,148.67,97.45,149.17Z" transform="translate(-5 -7.77)"/><path class="cls-5" d="M95.15,107.47a1.08,1.08,0,0,0,.6.1,0.34,0.34,0,0,1-.2-0.4C95.15,107.17,95.25,107.37,95.15,107.47Z" transform="translate(-5 -7.77)"/><path class="cls-12" d="M92.15,112.07h-0.1a0.75,0.75,0,0,0-.5.1c-0.3.2,0.3,1.1,0.8,1.3C92.25,113,92.25,112.57,92.15,112.07Z" transform="translate(-5 -7.77)"/><g id="layer104"><path class="cls-13" d="M98.35,127.77v-14.3a3.16,3.16,0,0,1,3.2-3.2h54.3a3.28,3.28,0,0,1,3,2l0.2,0.5c1.2,3.2,2.5,3.1,7.2-.1l1.9-1.3a3,3,0,0,1,3.6,0l1.9,1.3c4.5,3.2,5.7,3.3,7.2.1l0.3-.6a3,3,0,0,1,2.9-1.9h55.1a3.16,3.16,0,0,1,3.2,3.2v28.6a3.16,3.16,0,0,1-3.2,3.2H101.45a3.16,3.16,0,0,1-3.2-3.2v-14.3h0.1Z" transform="translate(-5 -7.77)"/><path class="cls-13" d="M181.75,104.77c-0.8-3-2-3.1-7.1-.5-4.9,2.5-4.7,2.5-9.1-.5-2.9-2-4-2.3-5.1-1.4s-1.7.8-2.9-.7c-2.4-3.1-5.4-9.2-5.4-11a8.92,8.92,0,0,0-1.9-4c-2.4-3-3.9-13-2.2-14.7,0.6-.6,1.1-3.4,1.1-6.1s0.9-7.5,1.3-8c0.4-.7,7.7-0.3,20.6-0.2h20.4l-0.3,6.8c0,3.1.5,6,1.1,6.4,1.9,1.2.5,12.8-2,16-1.1,1.5-2.1,3.5-2.1,4.6a17.13,17.13,0,0,1-2.2,5.8c-2,3.3-2.1,4.3-1.1,6.9s0.9,3.1-.7,3.1C183.05,107.27,182.15,106.27,181.75,104.77Zm-13.8-11c1.9-1.4,2.4-1.4,5.1,0,3.7,1.8,7.1,1.9,9.5.2s1.8-6-.8-6.5c-1.6-.3-1.8,0-1.2,2.5l0.8,2.8-3.1-2.9c-4.5-4.3-10.3-4.5-14.9-.5-3.5,3.1-5.2,3.9-3.2,1.4,1.3-1.6.6-3.5-1.5-3.5-1.2,0-2.5,2.1-2.5,4C156.15,94.87,164,96.57,168,93.77Zm-2.5-14.5a10.18,10.18,0,0,0,3.1-4.5c0.9-3.4,2.5-3.2,3.8.5,1.9,5.7,11.4,8.2,14.2,3.8,2-3.2,4.1-9.6,3.4-10.4-0.3-.3-4.1-0.5-8.5-0.3-9.2.2-12.4,0.2-21.9-.1-3.9-.2-7.6,0-8.2.4-1.2.7,1.2,8.3,3.5,10.9C157,81.87,162.25,81.77,165.45,79.27Z" transform="translate(-5 -7.77)"/><path class="cls-13" d="M155.15,77.37c-2.5-4.7-.2-8.1,5.5-8.1,4.3,0,6.7,1.8,5.9,4.3-1.1,3.7-3.5,5.7-7,5.7C157.25,79.27,155.85,78.67,155.15,77.37Z" transform="translate(-5 -7.77)"/><path class="cls-13" d="M175.75,77.07c-2.7-3.9-2.1-6.5,1.8-7.2a15.6,15.6,0,0,1,6.1,0c2.3,0.6,2.6,1,2.3,4.8-0.3,4-.4,4.1-4.5,4.4C178.15,79.27,177.05,79,175.75,77.07Z" transform="translate(-5 -7.77)"/></g><path class="cls-2" d="M156.65,120.07c0,1.9-1.2,3.5-3.5,4.8a4.6,4.6,0,0,1-2.1.8c-0.1,0-.1,0-0.1-0.1a0.69,0.69,0,0,1,.5-0.3,7.87,7.87,0,0,0,3.3-2.3,4.44,4.44,0,0,0,1.3-3,2.76,2.76,0,0,0-1-2.3,3.74,3.74,0,0,0-2.6-.9c-3.4,0-6.5,2-9.3,5.9-0.5.7-1.9,3.3-4.3,7.9-2.6,4.9-5.6,8-9.1,9.1,1,0.1,1.9.2,2.5,0.2a7.61,7.61,0,0,0,5.6-2.2,25.62,25.62,0,0,0,3.6-4.3,0.43,0.43,0,0,1,.3-0.3,0.1,0.1,0,0,1,.1.1,25.93,25.93,0,0,1-1.7,2.4,13,13,0,0,1-3.7,3.5,8.56,8.56,0,0,1-4.1,1,20.2,20.2,0,0,1-3.3-.3,12,12,0,0,1-2.4.4c-0.6,0-.9-0.1-0.9-0.4s0.5-.5,1.5-0.5a20.63,20.63,0,0,1,2.1.2,9.31,9.31,0,0,0,3.6-2.6,44.51,44.51,0,0,0,4-7l0.3-.6h-7a30.91,30.91,0,0,1-2.9,4.7,13.68,13.68,0,0,1-3.3,2.9,15.73,15.73,0,0,1-8.9,3.1,7.34,7.34,0,0,1-4.1-1.1,3.31,3.31,0,0,1-1.6-2.8,2.46,2.46,0,0,1,.5-1.5,1.71,1.71,0,0,1,1.3-.7,1.06,1.06,0,0,1,1.2,1.2,1.28,1.28,0,0,1-.4,1,1,1,0,0,1-.9.4,0.69,0.69,0,0,1-.8-0.8c0-.3,0-0.5-0.1-0.5s-0.3.3-.3,1a2.81,2.81,0,0,0,1.4,2.4,6.4,6.4,0,0,0,3.6.9,10.67,10.67,0,0,0,6.7-2.3c1.9-1.5,4.1-4.2,6.5-8.1h-5.5l0.1-.4h5.4c0.1-.2.4-0.6,0.7-1.2,2.5-4.1,4.9-7,7.1-8.6,0.5-.3,1.1-0.7,1.9-1.1a7.13,7.13,0,0,1,1.4-.6,0.1,0.1,0,0,1,.1.1,0.69,0.69,0,0,1-.4.3,9.68,9.68,0,0,0-4,3.1,50.89,50.89,0,0,0-4.8,8h7a35.25,35.25,0,0,1,7.3-9.4c2.6-2.2,5.2-3.4,7.7-3.4a4.36,4.36,0,0,1,3,1A4.85,4.85,0,0,1,156.65,120.07Zm-23.5.4a3.28,3.28,0,0,1-1.1,1.5,4.67,4.67,0,0,1-3,1.7,2.06,2.06,0,0,1-1.7-.7,2.41,2.41,0,0,1-.7-1.8,5.6,5.6,0,0,1,.7-2.5,7.5,7.5,0,0,0,.9-2.5,1.76,1.76,0,0,0-.9-1.5,3.92,3.92,0,0,0-2.3-.6,11.41,11.41,0,0,0-7.6,3.2c-2.4,2.2-3.5,4.5-3.5,6.9a4.14,4.14,0,0,0,1.2,3.1,4.07,4.07,0,0,0,3,1.2,7.18,7.18,0,0,0,6-3.3,0.1,0.1,0,0,1,.1-0.1c0.1,0,.1.1,0.1,0.2a3,3,0,0,1-1.2,1.4,7.69,7.69,0,0,1-5.2,2.1,4.08,4.08,0,0,1-3.2-1.3,4.46,4.46,0,0,1-1.2-3.3q0-3.9,3.6-7.2a11.58,11.58,0,0,1,7.9-3.3c2.5,0,3.8,1.1,3.8,3.3a6.29,6.29,0,0,1-.8,2.7,8.39,8.39,0,0,0-.8,2.1,1.3,1.3,0,0,0,1.5,1.4,4.26,4.26,0,0,0,2.1-.8,5.67,5.67,0,0,0,1.8-2,0.38,0.38,0,0,1,.2-0.2A0.55,0.55,0,0,1,133.15,120.47Z" transform="translate(-5 -7.77)"/><path class="cls-2" d="M154.15,133.87c0,0.3-.9,1.4-2.6,3.5-1.4,1.7-2.5,2.6-3.4,2.6a1.82,1.82,0,0,1-1.4-.6,2.54,2.54,0,0,1-.5-1.6,4.2,4.2,0,0,1,.6-2.1,19.89,19.89,0,0,1-2.8,3.4,2.8,2.8,0,0,1-1.9.9,2.09,2.09,0,0,1-1.6-.8,3.3,3.3,0,0,1-.7-2.1c0-2.3,1.6-4.4,4.9-6.1a7.62,7.62,0,0,1,3.5-1.2,1,1,0,0,1,1.1,1.1,2.49,2.49,0,0,1-.1.8l0.9-1.8a3.75,3.75,0,0,0,1,.1,7.17,7.17,0,0,0,1.3-.1l-3.2,5.3c-1.1,1.9-1.7,3.1-1.7,3.7s0.2,0.8.7,0.8,1.3-.6,2.3-1.7a29.27,29.27,0,0,0,3.2-4.1A0.2,0.2,0,1,1,154.15,133.87Zm-5-3a0.77,0.77,0,0,0-.8-0.9c-1.1,0-2.6,1.1-4.4,3.3s-2.7,3.9-2.7,5.3a1,1,0,0,0,1,1.2c0.8,0,2.3-1.4,4.3-4.1C148.25,133.27,149.15,131.67,149.15,130.87Zm3.9-5.9a3.24,3.24,0,0,1-.9,2.1,2.57,2.57,0,0,1-1.9,1,0.9,0.9,0,0,1-1-1,3.24,3.24,0,0,1,.9-2.1,2.6,2.6,0,0,1,2-1A0.83,0.83,0,0,1,153.05,125Zm-0.3-.1a0.53,0.53,0,0,0-.6-0.6,2.23,2.23,0,0,0-1.6,1,3,3,0,0,0-.9,1.8,0.51,0.51,0,0,0,.5.6,2.39,2.39,0,0,0,1.7-1A3,3,0,0,0,152.75,124.87Z" transform="translate(-5 -7.77)"/><path class="cls-2" d="M164.45,133.87a9.56,9.56,0,0,1-1.1,1.3,3.76,3.76,0,0,1-2.6,1.5,1.33,1.33,0,0,1-1.4-1.6,8.32,8.32,0,0,1,.2-1.3,11.67,11.67,0,0,0-1.9,2c-0.5.7-1.3,2-2.5,4a8,8,0,0,1-1.1-.1,8.66,8.66,0,0,0-1.1.1l3-4.8c1.5-2.4,2.2-3.9,2.2-4.5a0.4,0.4,0,0,0-.4-0.5c-0.7,0-1.9,1.3-3.7,3.9a0.43,0.43,0,0,1-.3.3,0.1,0.1,0,0,1-.1-0.1c0-.1,0-0.1.1-0.1l0.3-.5c1.9-2.5,3.1-3.7,3.8-3.7,1,0,1.4.6,1.4,1.9a7.48,7.48,0,0,1-1.5,3.7,15.27,15.27,0,0,1,1.8-1.8,8.92,8.92,0,0,1,1.7-2.7,3,3,0,0,1,1.8-1.1,0.51,0.51,0,0,1,.6.5c0,0.6-.8,1.4-2.5,2.5-0.3.2-.7,0.4-1.2,0.7l-0.2.2a4.41,4.41,0,0,0-.3,1.4c0,1,.4,1.5,1.1,1.5,0.9,0,2-.8,3.1-2.3a0.76,0.76,0,0,1,.5-0.4Q164.45,133.72,164.45,133.87Z" transform="translate(-5 -7.77)"/><path class="cls-2" d="M174.05,121.07a2.31,2.31,0,0,1-.5.7c-0.3.5-.8,1.3-1.4,2.3-0.3.5-.8,1.3-1.4,2.3l-3.1,5c-1,1.7-1.9,3.2-2.6,4.6s-1.5,2.7-2,3.5l-0.2.4a3.08,3.08,0,0,0-1-.1,5.74,5.74,0,0,0-1.2.1c0.3-.5.6-1,0.9-1.6l2.1-3.6c0.3-.5.8-1.4,1.4-2.5l6.6-11.1a5.38,5.38,0,0,0,1.1.1A7.17,7.17,0,0,0,174.05,121.07Zm1.5,12.8a1.24,1.24,0,0,0-.2.3l-0.8,1.1c-2.3,3.1-4,4.7-5.2,4.7a2.39,2.39,0,0,1-1.4-.5,1.43,1.43,0,0,1-.6-1.2,8,8,0,0,1,1-2.6v-0.1a2.65,2.65,0,0,0,.3-1,0.82,0.82,0,0,0-.6-0.7,3,3,0,0,1-1.1.3c-0.4,0-.6-0.1-0.6-0.4s0.2-.3.6-0.3a4.25,4.25,0,0,1,1.1.2A12.3,12.3,0,0,0,171,131a2.91,2.91,0,0,1,2.2-1.2,1.19,1.19,0,0,1,1.4,1.3,2.34,2.34,0,0,1-.7,1.7,1.89,1.89,0,0,1-1.4.9,0.67,0.67,0,0,1-.8-0.7,2.08,2.08,0,0,1,1.2-1.4,1.05,1.05,0,0,0,.5-0.9c0-.3-0.2-0.4-0.6-0.4a3.44,3.44,0,0,0-2,1.4,7.91,7.91,0,0,1-2.4,2.1c1.3,0.6,1.9,1.2,1.9,2a7.24,7.24,0,0,1-.9,2.4,2.67,2.67,0,0,0-.4,1,0.51,0.51,0,0,0,.6.5c1.1,0,3-1.9,5.5-5.7l0.2-.2C175.55,133.77,175.55,133.77,175.55,133.87Z" transform="translate(-5 -7.77)"/><path class="cls-2" d="M190.05,133.87c0,0.3-.9,1.4-2.6,3.5-1.4,1.7-2.6,2.6-3.4,2.6a2,2,0,0,1-1.4-.6,2.11,2.11,0,0,1-.6-1.6,4,4,0,0,1,.3-1.5,25.44,25.44,0,0,1,1.7-2.8,7.47,7.47,0,0,0,1.5-2.8,0.67,0.67,0,0,0-.8-0.7c-1.8,0-4.5,3.3-8.1,9.8a10.41,10.41,0,0,1-1.1-.1,4.87,4.87,0,0,0-1.2.1l2.8-4.5c1.6-2.6,2.4-4.1,2.4-4.8a0.43,0.43,0,0,0-.5-0.5q-0.9,0-3.6,3.9a0.85,0.85,0,0,1-.3.3c-0.1,0-.1,0-0.1-0.1s0-.1.1-0.1l0.3-.5c1.8-2.5,3.1-3.7,3.7-3.7a1.38,1.38,0,0,1,1.1.6,2,2,0,0,1,.4,1.3,6.81,6.81,0,0,1-1.4,3.2,23.68,23.68,0,0,1,3.3-4,3.57,3.57,0,0,1,2.1-1.1,1.46,1.46,0,0,1,1.3.7,3,3,0,0,1,.5,1.6c0,0.8-.6,2-1.7,3.7s-1.7,2.8-1.7,3.3a0.59,0.59,0,0,0,.7.7c1.1,0,2.9-1.9,5.6-5.7a0.38,0.38,0,0,1,.2-0.2C190,133.77,190.05,133.77,190.05,133.87Z" transform="translate(-5 -7.77)"/><path class="cls-2" d="M201.55,133.87c0,0.3-.9,1.4-2.6,3.5-1.4,1.7-2.6,2.6-3.4,2.6a1.61,1.61,0,0,1-1.3-.6,2,2,0,0,1-.6-1.5,4.31,4.31,0,0,1,.7-2l-0.4.5c-1.1,1.4-1.9,2.4-2.4,2.9a2.68,2.68,0,0,1-1.6.8,1.61,1.61,0,0,1-1.3-.6,2,2,0,0,1-.5-1.5,5.21,5.21,0,0,1,.8-2.4l3.3-5.5a3.75,3.75,0,0,0,1,.1,6.24,6.24,0,0,0,1.2-.1l-4.3,7.1a4.46,4.46,0,0,0-.7,1.9,0.67,0.67,0,0,0,.7.8c1.2,0,3.2-2.3,5.9-6.8l1.8-3a3.44,3.44,0,0,0,.9.1,7.17,7.17,0,0,0,1.3-.1l-2.9,4.7c-1.4,2.2-2.1,3.7-2.1,4.3a0.67,0.67,0,0,0,.7.8c1,0,2.5-1.5,4.7-4.6l0.6-.8,0.3-.4a0.38,0.38,0,0,1,.2-0.2Q201.55,133.72,201.55,133.87Z" transform="translate(-5 -7.77)"/><path class="cls-2" d="M218,121.27c-4.5,7.2-7.4,11.8-8.5,13.8s-1.8,3.3-1.8,3.8a0.67,0.67,0,0,0,.7.8c1.1,0,3-1.9,5.6-5.7a0.38,0.38,0,0,1,.2-0.2c0.1,0,.1,0,0.1.1a1.24,1.24,0,0,0-.2.3l-0.8,1.1c-2.3,3.1-4,4.7-5,4.7a1.82,1.82,0,0,1-1.4-.6,2.07,2.07,0,0,1-.5-1.6,4.62,4.62,0,0,1,.7-2.3c-2.1,3-3.7,4.5-4.7,4.5a2.09,2.09,0,0,1-1.6-.8,3.3,3.3,0,0,1-.7-2.1c0-2,1.2-3.8,3.7-5.4,2-1.3,3.5-1.9,4.6-1.9a1,1,0,0,1,1.1,1.1,2.61,2.61,0,0,1-.3,1.1l6.5-10.8a5,5,0,0,0,1.2.2A2.53,2.53,0,0,1,218,121.27Zm-8.7,9.7a0.87,0.87,0,0,0-.9-1c-1.1,0-2.5,1.1-4.3,3.2s-2.7,3.9-2.7,5.2a1,1,0,0,0,1,1.2c1,0,2.6-1.7,5-5C208.65,132.87,209.25,131.57,209.25,131Z" transform="translate(-5 -7.77)"/><path class="cls-2" d="M223.45,133.87a5.2,5.2,0,0,1-.3.5l-0.8,1c-2.5,3.1-4.6,4.6-6.4,4.6a2.72,2.72,0,0,1-2.1-.9,3.17,3.17,0,0,1-.9-2.3q0-3.3,4.5-5.7a8.41,8.41,0,0,1,3.9-1.3,1.5,1.5,0,0,1,1.1.4,1.38,1.38,0,0,1,.5.9,2.61,2.61,0,0,1-1.7,2.2,20.67,20.67,0,0,1-5.7,1.7,6.1,6.1,0,0,0-1.2,3.1,1.5,1.5,0,0,0,1.7,1.6c1.9,0,4.2-1.9,7-5.6a0.54,0.54,0,0,1,.4-0.3v0.1Zm-1.5-3.4a0.53,0.53,0,0,0-.6-0.6,4.25,4.25,0,0,0-2.5,1.3,20.93,20.93,0,0,0-3.1,3.4,13.62,13.62,0,0,0,4.4-1.9C221.35,132,222,131.27,222,130.47Z" transform="translate(-5 -7.77)"/><path class="cls-2" d="M238,133.87c0,0.3-.9,1.4-2.6,3.5-1.4,1.7-2.6,2.6-3.4,2.6a2,2,0,0,1-1.4-.6,2.11,2.11,0,0,1-.6-1.6,4,4,0,0,1,.3-1.5,25.44,25.44,0,0,1,1.7-2.8,7.47,7.47,0,0,0,1.5-2.8,0.67,0.67,0,0,0-.8-0.7c-1.8,0-4.5,3.3-8.1,9.8a10.42,10.42,0,0,1-1.1-.1,4.87,4.87,0,0,0-1.2.1l2.8-4.5c1.6-2.6,2.4-4.1,2.4-4.8a0.43,0.43,0,0,0-.5-0.5q-0.9,0-3.6,3.9a0.85,0.85,0,0,1-.3.3c-0.1,0-.1,0-0.1-0.1s0-.1.1-0.1l0.3-.5c1.8-2.5,3.1-3.7,3.7-3.7a1.1,1.1,0,0,1,1,.6,2,2,0,0,1,.4,1.3,6.81,6.81,0,0,1-1.4,3.2,23.68,23.68,0,0,1,3.3-4,3.57,3.57,0,0,1,2.1-1.1,1.46,1.46,0,0,1,1.3.7,3,3,0,0,1,.5,1.6c0,0.8-.6,2-1.7,3.7s-1.7,2.8-1.7,3.3a0.59,0.59,0,0,0,.7.7c1.1,0,2.9-1.9,5.6-5.7a0.38,0.38,0,0,1,.2-0.2C237.85,133.77,238,133.77,238,133.87Z" transform="translate(-5 -7.77)"/><text class="cls-14" transform="translate(0 185.73)">Åbenthus lørdag d. 17</text></svg>